<?xml version="1.0" standalone="no"?>
<!DOCTYPE svg PUBLIC "-//W3C//DTD SVG 20010904//EN"
 "http://www.w3.org/TR/2001/REC-SVG-20010904/DTD/svg10.dtd">
<svg version="1.0" xmlns="http://www.w3.org/2000/svg"
 width="1142.000000pt" height="1142.000000pt" viewBox="0 0 1142.000000 1142.000000"
 preserveAspectRatio="xMidYMid meet">
<metadata>
Created by potrace 1.14, written by Peter Selinger 2001-2017
</metadata>
<g transform="translate(0.000000,1142.000000) scale(0.100000,-0.100000)"
fill="#000000" stroke="none">
<path d="M5457 11284 c-1 -1 -47 -5 -102 -8 -55 -4 -118 -9 -140 -11 -22 -3
-67 -7 -100 -10 -149 -12 -200 -19 -355 -45 -157 -27 -189 -33 -252 -46 -15
-3 -30 -5 -33 -5 -2 0 -19 -5 -37 -10 -18 -5 -49 -12 -68 -15 -19 -3 -38 -8
-42 -11 -5 -2 -16 -6 -25 -8 -33 -6 -218 -57 -263 -72 -25 -8 -52 -16 -60 -18
-28 -6 -195 -67 -222 -81 -16 -8 -28 -12 -28 -10 0 4 -92 -30 -145 -54 -11 -5
-67 -29 -126 -54 -114 -49 -516 -251 -529 -267 -6 -7 -130 -79 -136 -79 -3 0
-10 -4 -17 -10 -25 -21 -119 -80 -127 -80 -5 0 -10 -3 -12 -7 -1 -5 -23 -21
-48 -38 -25 -16 -47 -32 -50 -35 -3 -3 -32 -23 -65 -45 -33 -22 -105 -75 -160
-117 -55 -43 -108 -84 -117 -91 -9 -7 -32 -26 -50 -42 -19 -17 -60 -52 -93
-80 -138 -114 -408 -382 -541 -535 -570 -659 -966 -1398 -1191 -2220 -8 -30
-16 -63 -19 -72 -2 -10 -6 -26 -8 -35 -13 -49 -85 -404 -91 -443 -3 -25 -8
-52 -10 -60 -2 -8 -7 -40 -10 -70 -3 -30 -8 -68 -10 -85 -3 -16 -7 -68 -10
-115 -3 -47 -7 -103 -10 -125 -21 -205 -22 -624 -1 -875 2 -25 7 -83 11 -130
3 -47 8 -98 10 -115 12 -100 17 -132 20 -145 2 -8 7 -40 10 -70 4 -30 22 -129
42 -220 19 -91 36 -175 39 -188 43 -213 199 -675 319 -947 54 -122 214 -434
280 -545 155 -263 397 -603 572 -806 43 -49 93 -108 111 -130 74 -87 339 -348
437 -429 33 -28 69 -58 80 -69 145 -133 512 -396 760 -544 432 -258 939 -474
1375 -587 80 -20 152 -38 160 -40 8 -2 33 -8 55 -13 22 -6 53 -13 69 -16 16
-3 52 -10 80 -15 204 -41 366 -66 501 -77 33 -2 83 -7 110 -9 211 -20 643 -26
825 -11 52 4 118 9 145 11 50 3 153 12 230 20 23 2 72 9 110 15 39 7 84 14
100 16 42 6 68 11 155 28 41 8 86 17 100 19 104 20 423 105 560 149 243 79
467 171 730 302 246 123 390 205 600 344 191 126 398 280 488 363 9 8 39 33
66 55 84 66 145 123 311 289 157 156 203 206 275 293 19 24 44 53 55 66 47 52
91 106 110 132 11 15 47 62 80 104 242 311 525 805 689 1201 78 190 190 512
211 609 2 8 11 44 20 80 9 36 19 73 21 83 2 10 6 27 9 37 3 10 8 27 10 37 2
10 17 81 33 158 17 77 33 163 36 190 4 28 11 73 16 100 11 62 19 128 25 208 3
34 7 80 10 102 21 178 25 257 25 500 0 222 -4 355 -15 449 -3 28 -7 78 -10
111 -3 33 -7 76 -10 95 -2 19 -7 64 -10 100 -3 36 -8 76 -10 90 -3 14 -7 39
-9 55 -33 205 -76 409 -120 570 -2 6 -6 24 -10 40 -4 17 -14 51 -22 76 -8 25
-16 54 -18 65 -6 28 -95 294 -110 329 -8 17 -33 80 -56 140 -23 61 -48 121
-55 135 -7 14 -32 67 -56 119 -57 123 -163 324 -248 471 -42 72 -268 420 -280
430 -3 3 -40 50 -81 105 -217 288 -522 616 -764 820 -33 28 -78 66 -100 86
-122 106 -330 262 -511 381 -407 267 -742 433 -1246 616 -113 41 -517 154
-599 168 -14 2 -56 11 -95 19 -38 8 -86 17 -105 20 -19 3 -71 12 -115 20 -44
8 -102 17 -130 19 -27 3 -70 8 -95 10 -174 20 -185 21 -340 32 -87 6 -558 12
-563 8z m608 -278 c22 -2 67 -7 100 -10 107 -11 261 -30 325 -40 14 -3 48 -7
75 -11 28 -3 84 -13 125 -22 41 -8 84 -17 95 -19 130 -25 466 -116 565 -154
30 -12 60 -23 65 -24 6 -2 24 -6 40 -11 17 -4 35 -11 40 -15 6 -4 24 -12 40
-18 69 -25 173 -65 210 -82 22 -10 69 -30 105 -45 169 -70 500 -250 690 -373
87 -57 321 -221 330 -232 3 -3 21 -17 40 -30 19 -13 37 -27 40 -30 3 -3 27
-24 55 -45 27 -22 55 -44 62 -50 6 -5 33 -28 59 -50 155 -128 522 -502 633
-645 339 -436 466 -633 659 -1020 114 -230 177 -380 268 -640 37 -106 108
-340 119 -390 2 -8 12 -53 23 -100 22 -89 47 -210 57 -270 3 -19 7 -46 10 -60
8 -41 16 -93 20 -125 3 -16 7 -48 10 -70 3 -22 8 -64 11 -94 3 -30 8 -64 10
-75 27 -144 27 -939 -1 -1046 -4 -13 -8 -44 -19 -160 -3 -29 -17 -120 -21
-140 -1 -3 -5 -30 -9 -60 -5 -30 -10 -64 -12 -75 -2 -11 -7 -33 -10 -50 -80
-455 -317 -1113 -545 -1517 -29 -51 -63 -113 -77 -138 -52 -93 -226 -355 -322
-485 -153 -205 -297 -370 -516 -589 -166 -166 -191 -189 -349 -320 -160 -133
-150 -125 -237 -188 -40 -29 -75 -55 -78 -58 -12 -12 -279 -189 -325 -215 -27
-15 -90 -51 -140 -80 -147 -87 -586 -296 -670 -319 -5 -2 -21 -8 -35 -13 -212
-87 -574 -195 -798 -238 -40 -8 -76 -16 -80 -18 -4 -3 -36 -8 -72 -12 -36 -4
-67 -8 -70 -10 -3 -2 -25 -6 -50 -9 -25 -3 -54 -8 -65 -10 -32 -6 -106 -15
-168 -21 -32 -4 -67 -8 -78 -10 -66 -13 -251 -20 -514 -20 -290 0 -416 6 -595
30 -19 3 -55 7 -80 10 -580 74 -1111 233 -1640 492 -522 256 -980 583 -1401
1003 -530 528 -917 1115 -1190 1804 -32 82 -59 153 -59 158 0 6 -6 24 -14 41
-12 27 -71 207 -106 322 -23 79 -76 303 -86 365 -3 19 -7 43 -10 52 -7 22 -13
57 -19 93 -2 17 -6 46 -9 65 -3 19 -8 51 -10 70 -3 19 -7 46 -10 60 -2 14 -7
50 -10 80 -4 30 -11 93 -16 140 -31 254 -33 738 -6 935 2 17 7 64 11 105 4 41
8 82 10 90 2 8 6 44 10 80 4 36 9 68 11 71 1 3 6 30 9 60 4 29 15 96 26 149
11 52 22 111 25 130 3 19 8 38 11 43 2 4 6 20 9 35 3 15 16 70 30 122 15 52
28 102 29 110 6 24 55 184 62 200 3 8 7 21 9 29 1 7 12 36 23 65 10 28 31 83
46 121 46 120 104 264 115 283 5 9 19 40 31 67 120 280 358 682 563 950 34 44
64 84 68 90 27 37 181 222 233 280 68 76 288 298 378 381 103 96 356 302 416
339 9 6 18 13 21 16 9 13 124 94 215 153 203 133 275 177 275 169 0 -3 8 1 18
9 28 25 318 177 397 209 17 7 32 13 35 15 3 1 15 5 28 9 12 4 22 11 22 16 0 5
3 8 8 7 4 -2 27 6 52 16 25 11 47 20 50 21 10 3 46 17 65 25 11 5 41 18 68 29
26 11 47 17 47 14 0 -3 6 -1 13 4 11 9 44 20 72 23 6 1 15 6 21 11 7 5 20 12
30 14 11 2 53 16 94 30 41 15 80 28 85 29 18 5 99 29 145 43 25 8 58 17 74 19
16 2 43 8 60 13 17 6 90 22 161 37 124 25 159 31 215 39 14 1 39 5 55 8 17 3
50 8 75 12 25 3 56 8 70 10 39 7 131 17 180 21 25 1 45 4 45 5 0 1 33 3 74 5
40 2 76 5 78 7 5 6 615 -1 668 -7z"/>
<path d="M5396 9662 c-2 -2 -35 -5 -72 -7 -85 -6 -160 -16 -259 -35 -27 -5
-66 -12 -85 -15 -213 -35 -503 -126 -735 -230 -112 -50 -336 -165 -360 -185
-8 -7 -15 -9 -15 -4 0 5 -4 4 -8 -2 -4 -6 -38 -31 -77 -55 -38 -24 -108 -70
-155 -103 -82 -58 -96 -69 -143 -110 -12 -10 -44 -37 -71 -60 -159 -133 -351
-326 -451 -451 -21 -27 -42 -52 -45 -55 -12 -10 -139 -189 -192 -270 -131
-200 -308 -559 -356 -721 -6 -19 -27 -88 -47 -154 -20 -66 -38 -127 -40 -135
-34 -127 -47 -222 -36 -253 13 -35 39 7 80 128 59 176 107 308 138 378 76 170
196 400 288 550 60 99 224 315 330 436 45 52 264 271 315 316 29 25 133 111
175 143 49 39 201 147 234 167 9 6 31 20 48 33 17 12 35 22 39 22 4 0 15 6 23
14 28 25 311 173 411 215 30 12 64 27 75 31 47 21 282 102 362 126 96 28 109
31 166 39 22 4 49 10 61 14 11 5 43 11 69 15 27 4 59 9 70 12 12 2 38 7 57 10
19 3 46 7 60 10 47 8 165 17 232 18 38 1 68 5 68 9 0 4 8 3 18 -2 13 -7 22 -7
29 0 8 8 13 8 17 0 5 -7 15 -7 31 -1 18 7 25 6 25 -2 0 -9 3 -9 12 0 7 7 17 8
30 1 11 -6 18 -6 18 0 0 6 11 6 28 2 15 -5 37 -4 50 0 12 5 22 5 22 1 0 -4 55
-7 123 -7 67 0 138 -3 157 -7 19 -3 51 -8 70 -9 19 -2 40 -5 45 -8 6 -3 19 -6
30 -7 37 -2 108 -14 184 -30 42 -9 87 -18 101 -20 14 -3 43 -10 65 -16 22 -5
47 -11 55 -13 35 -7 273 -87 375 -125 94 -35 370 -164 385 -180 3 -3 30 -18
60 -33 62 -31 113 -60 120 -67 5 -5 30 -20 84 -49 35 -18 72 -17 79 4 3 7 -14
31 -39 53 -24 23 -44 39 -44 37 0 -5 -157 97 -177 115 -7 5 -15 10 -19 10 -3
0 -18 8 -32 19 -78 53 -356 193 -505 252 -190 76 -477 162 -612 183 -21 4 -41
8 -44 11 -16 9 -172 30 -321 41 -87 7 -568 12 -574 6z"/>
<path d="M8675 9162 c-67 -10 -174 -40 -270 -75 -103 -38 -324 -142 -335 -157
-3 -4 -21 -15 -40 -25 -19 -10 -48 -27 -65 -39 -57 -39 -170 -121 -182 -131
-6 -5 -45 -37 -85 -70 -61 -49 -122 -112 -184 -187 -110 -135 -211 -380 -228
-553 -10 -98 -17 -160 -22 -173 -2 -8 -7 -55 -10 -105 -4 -77 -17 -171 -28
-212 -2 -5 -6 -27 -11 -48 -6 -32 -25 -52 -134 -144 -69 -59 -131 -112 -137
-118 -6 -5 -55 -48 -109 -95 -174 -150 -354 -341 -494 -525 -30 -38 -64 -81
-76 -95 -62 -69 -234 -358 -327 -550 -135 -279 -235 -573 -298 -880 -27 -130
-33 -168 -46 -275 -3 -27 -7 -52 -10 -56 -8 -13 -17 -165 -18 -296 -1 -73 -4
-133 -7 -133 -3 0 -19 26 -34 58 -50 100 -175 313 -257 435 -124 187 -219 306
-376 477 -42 46 -88 117 -217 339 -74 127 -346 433 -455 511 -18 14 -61 46
-95 72 -131 101 -338 218 -550 311 -88 38 -198 75 -320 107 -44 12 -87 23 -95
25 -40 11 -98 24 -130 30 -117 19 -150 24 -195 30 -27 4 -61 8 -75 10 -98 13
-247 20 -445 19 -211 0 -276 -4 -375 -19 -106 -16 -101 -14 -94 -43 20 -83 99
-320 131 -392 28 -65 123 -251 148 -290 14 -22 25 -42 25 -44 0 -18 129 -201
219 -311 102 -124 121 -145 196 -220 342 -341 805 -634 1320 -835 88 -34 169
-66 180 -70 48 -21 368 -118 411 -126 16 -3 61 -13 99 -24 39 -10 88 -21 110
-24 65 -10 88 -15 125 -25 19 -6 38 -7 43 -2 10 10 -53 131 -124 238 -27 41
-49 78 -49 83 0 5 -4 10 -8 12 -4 2 -21 21 -37 43 -146 198 -410 477 -610 644
-55 45 -111 92 -125 104 -93 79 -345 259 -500 357 -8 5 -55 36 -105 68 -114
74 -269 168 -360 216 -38 21 -75 45 -82 53 -6 8 -14 14 -18 13 -13 -4 -64 23
-60 31 3 4 11 6 18 4 7 -2 73 -22 147 -45 74 -23 149 -48 165 -55 17 -6 59
-24 95 -37 119 -47 174 -72 323 -146 81 -41 147 -78 147 -83 0 -5 6 -9 13 -9
12 0 157 -86 184 -109 6 -6 37 -26 68 -46 119 -77 375 -285 370 -302 -2 -7 2
-10 8 -7 7 2 23 -6 34 -18 12 -13 36 -34 54 -48 60 -47 284 -278 344 -355 17
-21 37 -46 46 -54 29 -29 88 -106 158 -206 110 -158 115 -166 126 -178 24 -27
116 -187 153 -267 81 -173 186 -451 207 -550 2 -8 13 -53 24 -100 81 -327 103
-545 105 -1046 0 -190 4 -294 11 -295 24 -3 309 2 312 5 2 2 5 347 7 767 1
420 5 780 9 799 7 43 16 124 23 204 9 114 80 383 135 511 7 17 13 32 14 35 5
21 81 172 105 207 17 24 30 46 30 48 0 17 153 224 213 287 15 16 27 33 27 36
0 10 164 177 235 240 80 70 82 72 89 65 3 -4 6 -2 6 4 0 13 125 109 170 130 8
4 23 14 33 24 10 9 41 29 70 44 29 16 54 31 57 35 9 13 235 117 342 159 116
45 141 50 131 26 -3 -9 -8 -14 -10 -11 -3 3 -30 -10 -59 -29 -30 -19 -56 -35
-59 -35 -3 0 -41 -25 -86 -55 -45 -30 -83 -55 -85 -55 -3 0 -10 -5 -17 -10 -7
-6 -58 -43 -113 -83 -190 -135 -265 -198 -424 -357 -110 -110 -158 -162 -201
-220 -15 -19 -35 -45 -45 -57 -18 -21 -52 -75 -130 -207 -19 -32 -32 -61 -29
-64 5 -5 77 7 145 24 8 2 44 10 80 19 76 18 290 89 339 111 18 9 39 17 45 18
32 6 280 128 384 189 240 140 505 368 614 527 10 14 30 43 46 65 44 62 96 153
140 240 42 85 110 260 118 304 2 14 7 40 10 57 l6 32 -69 2 c-220 8 -430 2
-538 -14 -106 -16 -175 -28 -210 -38 -22 -5 -51 -12 -65 -15 -34 -6 -206 -66
-263 -92 -25 -12 -48 -21 -51 -21 -3 0 -46 -25 -96 -55 -50 -30 -93 -55 -95
-55 -6 0 -192 -150 -230 -186 -17 -16 -46 -49 -65 -74 -19 -25 -37 -47 -40
-50 -3 -3 -19 -23 -35 -45 -103 -136 -193 -315 -255 -510 -23 -71 -48 -148
-56 -170 -16 -47 -83 -155 -95 -155 -5 0 -9 -4 -9 -9 0 -5 -18 -36 -40 -69
-22 -33 -63 -102 -90 -154 -43 -80 -54 -90 -52 -48 1 28 15 180 18 195 2 11 6
58 9 105 2 47 9 110 15 140 6 30 13 64 14 75 9 59 20 119 38 195 11 47 21 92
23 100 3 14 30 106 70 240 9 30 23 69 29 85 7 17 23 57 36 90 90 232 266 556
364 670 90 105 772 777 810 800 48 28 146 64 191 70 29 4 125 11 255 20 36 2
88 7 115 11 52 6 61 7 156 18 30 4 80 14 110 22 30 8 61 17 70 19 43 9 182 74
254 116 134 80 214 158 416 407 44 54 160 242 204 330 95 192 142 323 160 447
3 22 8 54 10 70 20 141 -28 302 -120 396 -48 50 -153 110 -223 129 -41 10
-204 19 -247 12z m-55 -1155 c0 -11 -140 -157 -150 -157 -4 0 -29 -20 -56 -45
-27 -25 -54 -45 -61 -45 -7 0 -13 -3 -13 -7 0 -7 -82 -46 -100 -48 -3 -1 -21
-6 -40 -12 -50 -17 -130 -23 -130 -11 0 7 -5 6 -13 -1 -8 -6 -16 -9 -18 -7 -2
2 -24 7 -48 10 -24 3 -55 13 -68 21 -12 9 -23 13 -23 10 0 -4 -17 3 -38 15
-66 37 -51 45 92 46 148 0 176 4 272 40 38 15 75 26 82 27 6 0 12 4 12 9 0 4
7 8 15 8 17 0 138 61 143 73 2 4 8 7 14 7 5 0 24 10 41 23 51 36 87 54 87 44z"/>
<path d="M4217 7894 c-1 -1 -66 -4 -144 -7 -79 -3 -146 -8 -151 -10 -4 -3 -28
-8 -52 -12 -25 -4 -49 -10 -53 -15 -9 -8 61 -195 115 -305 132 -270 378 -531
694 -737 83 -54 271 -150 404 -206 116 -48 370 -132 450 -147 8 -2 33 -8 55
-13 42 -12 63 -16 160 -32 33 -6 77 -14 98 -19 46 -11 47 -5 6 68 -69 122
-285 363 -444 496 -33 28 -62 52 -65 55 -6 7 -232 166 -285 202 -124 82 -281
175 -405 238 -47 25 -87 48 -88 52 -2 5 -7 6 -12 3 -4 -3 -10 1 -13 9 -4 11
15 9 86 -11 51 -14 106 -31 122 -37 17 -7 71 -28 120 -46 217 -79 485 -238
679 -402 130 -110 416 -407 416 -432 0 -3 8 -14 18 -25 9 -10 28 -33 41 -50
34 -45 42 -38 21 17 -10 26 -32 98 -49 160 -87 317 -281 624 -517 818 -225
185 -530 319 -822 359 -20 3 -46 7 -57 10 -44 9 -320 25 -328 19z"/>
<path d="M9186 5803 c-3 -10 -8 -34 -11 -53 -19 -112 -115 -474 -166 -625
-126 -370 -315 -735 -536 -1038 -145 -198 -446 -518 -613 -652 -41 -33 -82
-67 -91 -75 -65 -60 -424 -310 -445 -310 -4 0 -15 -6 -23 -14 -44 -38 -536
-279 -596 -292 -23 -4 -151 -58 -160 -66 -6 -6 -4 -7 5 -4 8 3 31 7 50 10 77
12 141 27 275 66 433 126 718 270 1075 544 130 100 153 119 316 282 273 274
510 616 658 954 21 47 46 104 57 127 10 24 19 47 19 53 0 6 4 18 10 28 19 35
105 328 116 396 3 21 8 48 10 60 13 59 24 128 30 186 3 36 7 72 9 80 3 18 15
141 20 208 2 26 6 68 10 94 6 45 -8 76 -19 41z"/>
<path d="M1450 5083 c-42 -8 -49 -29 -28 -91 10 -30 18 -62 18 -71 0 -13 -49
-27 -230 -70 -127 -30 -234 -59 -239 -65 -9 -11 -7 -103 2 -113 3 -2 22 0 44
6 99 27 421 101 441 101 15 0 23 -8 28 -27 19 -88 30 -108 60 -111 16 -2 37 3
46 10 16 12 16 17 -3 88 -10 41 -21 84 -23 95 -2 11 -13 59 -25 106 -12 48
-21 95 -21 106 0 21 -19 44 -34 42 -6 -1 -22 -4 -36 -6z"/>
<path d="M9894 5033 c-3 -15 -14 -62 -25 -103 -10 -41 -20 -91 -23 -110 -3
-19 -7 -52 -10 -72 -5 -33 -3 -38 16 -42 13 -2 144 -32 293 -65 163 -37 273
-57 278 -52 12 12 53 181 62 253 4 29 8 55 10 58 14 23 -58 47 -85 30 -6 -4
-20 -48 -32 -98 -26 -106 -32 -111 -113 -87 -60 17 -61 18 -45 95 23 110 23
117 -2 124 -66 17 -88 4 -88 -53 0 -30 -28 -118 -39 -126 -5 -2 -34 3 -65 12
-42 12 -58 21 -62 37 -4 19 20 127 41 178 8 19 -13 32 -67 42 -35 6 -38 5 -44
-21z"/>
<path d="M9700 4348 c-54 -121 -131 -331 -126 -344 7 -17 46 -33 63 -27 7 3
26 34 43 70 25 52 34 63 48 58 9 -4 35 -13 57 -20 22 -8 120 -47 217 -88 97
-41 180 -71 186 -68 8 6 45 102 39 107 -1 1 -81 34 -177 73 -280 115 -280 115
-280 131 0 9 9 42 21 75 l21 59 -22 18 c-40 33 -59 23 -90 -44z"/>
<path d="M1615 4328 c-38 -16 -101 -45 -140 -63 -111 -52 -175 -81 -252 -116
-40 -18 -73 -37 -73 -41 0 -22 44 -98 57 -98 8 0 38 11 66 24 29 13 73 33 99
45 61 27 65 27 81 -11 8 -18 23 -53 34 -78 34 -75 43 -100 43 -114 0 -8 -39
-30 -87 -51 -49 -20 -98 -43 -110 -51 l-23 -14 20 -51 c10 -28 21 -53 23 -55
5 -5 51 14 172 71 44 20 119 54 167 75 82 37 209 98 217 106 6 5 -30 88 -42
96 -5 3 -26 -1 -46 -9 -20 -9 -45 -19 -56 -23 -11 -4 -31 -12 -45 -18 -51 -23
-77 -30 -86 -24 -13 9 -83 165 -90 201 -6 26 -2 29 70 59 41 18 79 32 83 32 5
0 20 10 35 23 l28 22 -23 47 c-12 27 -29 48 -37 47 -8 0 -46 -14 -85 -31z"/>
<path d="M1960 3535 c-58 -41 -165 -113 -237 -162 -81 -54 -133 -94 -133 -105
0 -20 164 -269 186 -281 12 -7 24 -2 45 19 16 15 29 32 29 38 0 6 -18 36 -41
69 -22 32 -42 63 -43 70 -1 7 -5 17 -9 24 -12 19 1 37 48 66 54 35 68 29 118
-46 51 -76 57 -80 95 -57 18 11 32 25 32 30 0 6 -18 41 -40 77 -22 37 -40 75
-40 84 0 10 21 34 46 54 54 41 56 40 115 -45 68 -98 63 -94 103 -79 26 9 36
19 36 34 -1 25 -172 279 -191 282 -8 1 -61 -31 -119 -72z"/>
<path d="M9320 3583 c-24 -6 -72 -93 -66 -119 5 -18 33 -59 153 -223 21 -28
99 -131 111 -146 4 -5 27 -35 50 -67 53 -69 66 -75 90 -40 40 57 44 70 27 102
-9 16 -19 30 -24 30 -36 0 18 135 81 202 29 31 26 31 115 14 18 -4 29 5 52 38
17 24 31 49 33 56 3 12 -43 27 -135 45 -16 3 -102 23 -190 44 -89 22 -182 42
-207 46 -25 4 -52 11 -60 14 -8 4 -22 6 -30 4z m182 -162 c13 -5 45 -12 72
-15 63 -9 69 -13 61 -44 -9 -37 -65 -111 -80 -106 -6 3 -25 23 -41 45 -16 22
-44 60 -62 84 l-33 45 30 0 c16 0 40 -4 53 -9z"/>
<path d="M8776 2903 l-38 -35 24 -26 c33 -36 68 -70 191 -186 60 -55 136 -127
170 -159 l61 -57 34 32 c39 38 176 195 180 208 5 12 -39 50 -58 50 -9 0 -42
-27 -74 -60 -32 -33 -63 -60 -69 -60 -7 0 -57 43 -112 96 -138 131 -223 207
-249 221 -19 10 -26 7 -60 -24z"/>
<path d="M2753 2684 c-21 -26 -56 -68 -77 -93 -39 -45 -213 -260 -250 -308
-18 -23 -18 -24 0 -38 11 -8 33 -22 50 -31 37 -20 33 -22 124 84 75 87 78 88
130 44 129 -111 134 -116 120 -143 -12 -21 -81 -109 -118 -148 -20 -20 -11
-41 32 -75 l38 -31 50 55 c66 73 245 292 291 356 20 28 37 58 37 67 0 15 -61
67 -79 67 -5 0 -36 -33 -69 -72 -99 -121 -83 -119 -190 -35 -50 40 -92 77 -92
82 0 6 7 20 15 30 56 73 125 170 125 176 0 11 -71 59 -87 59 -7 0 -29 -21 -50
-46z"/>
<path d="M8409 2540 c-14 -4 -36 -13 -50 -20 -26 -14 -160 -113 -197 -146
l-24 -21 83 -114 c81 -112 212 -280 257 -329 12 -14 22 -28 22 -32 0 -19 27
-5 57 29 39 43 37 54 -19 130 -21 29 -39 56 -39 60 0 5 -8 16 -16 26 -9 9 -12
17 -7 17 14 1 108 90 140 133 76 105 -4 262 -138 271 -23 2 -55 0 -69 -4z m65
-121 c34 -16 59 -70 47 -101 -12 -32 -91 -98 -117 -98 -14 0 -75 73 -78 93 -1
6 -5 18 -10 25 -5 8 4 23 26 43 51 48 86 58 132 38z"/>
<path d="M3413 2133 c-61 -109 -191 -345 -218 -396 -23 -45 -43 -28 150 -134
122 -68 131 -71 147 -55 10 9 20 31 23 47 6 29 4 31 -79 73 -46 24 -87 50 -90
58 -3 8 2 29 12 46 9 17 23 41 30 54 18 33 44 30 128 -16 l72 -39 14 22 c36
55 29 66 -69 116 -61 31 -67 47 -37 109 17 35 31 52 43 52 19 0 164 -70 169
-81 2 -4 11 -5 22 -2 24 6 47 60 34 80 -11 18 -236 139 -275 148 -25 6 -30 1
-76 -82z"/>
<path d="M7390 1952 c-61 -31 -58 -23 -62 -189 -2 -68 -7 -123 -11 -123 -4 0
-47 38 -95 84 -100 96 -124 109 -176 95 -20 -5 -37 -9 -39 -7 -2 2 -12 -4 -21
-12 -17 -13 -15 -16 21 -48 21 -19 58 -53 83 -76 25 -23 56 -50 70 -59 13 -9
50 -42 81 -72 44 -43 65 -74 97 -147 22 -51 47 -97 56 -102 17 -11 85 20 94
42 2 8 -5 37 -16 65 -18 43 -35 126 -35 172 0 76 22 299 39 388 4 25 -25 22
-86 -11z"/>
<path d="M4213 1841 c-22 -21 -36 -38 -220 -271 -71 -91 -136 -176 -142 -189
-17 -30 -6 -40 51 -47 43 -5 47 -4 85 36 l40 43 112 -38 111 -37 0 -59 0 -60
56 -26 c30 -14 58 -22 62 -18 13 13 2 639 -11 651 -11 10 -92 34 -115 34 -4 0
-17 -9 -29 -19z m35 -276 l-1 -115 -27 0 c-15 0 -33 7 -40 15 -7 8 -20 15 -29
15 -9 0 -24 7 -34 15 -18 13 -16 18 36 83 56 70 85 102 92 102 2 0 4 -52 3
-115z"/>
<path d="M6658 1705 c-3 -4 -21 -9 -40 -12 -42 -6 -42 -6 -30 -45 6 -18 13
-58 16 -88 4 -30 9 -69 12 -86 4 -21 2 -31 -8 -32 -7 0 -24 -3 -38 -6 -13 -3
-42 -8 -65 -12 -22 -3 -56 -9 -76 -13 -45 -10 -56 -4 -63 34 -8 45 -15 77 -22
110 -6 26 -10 47 -13 78 -1 4 -29 7 -62 7 l-61 0 6 -62 c3 -35 11 -90 16 -123
6 -33 13 -76 16 -95 27 -163 55 -303 64 -320 10 -18 17 -20 53 -15 23 4 45 12
50 18 4 7 5 44 1 82 -4 39 -8 89 -8 112 -1 24 -4 43 -8 43 -4 0 -5 6 -2 14 5
13 35 21 124 33 19 2 53 9 74 15 51 13 51 13 71 -127 18 -117 25 -129 76 -120
63 11 67 14 63 45 -9 67 -12 88 -23 145 -6 33 -13 76 -16 95 -3 19 -12 72 -21
118 -8 46 -17 102 -19 125 -8 75 -11 82 -36 85 -14 2 -28 0 -31 -3z"/>
<path d="M4859 1668 c0 -7 -2 -22 -4 -33 -2 -11 -6 -38 -9 -60 -2 -22 -11 -83
-20 -135 -8 -52 -18 -113 -21 -135 -10 -70 -16 -99 -25 -135 -17 -60 -13 -89
13 -95 59 -14 198 -31 247 -30 l54 0 4 43 3 42 -40 1 c-23 1 -44 2 -48 3 -5 1
-25 5 -45 9 -21 5 -39 11 -40 15 -7 34 -4 82 12 167 11 55 22 125 25 155 6 57
9 76 20 146 6 40 5 41 -26 48 -52 10 -99 7 -100 -6z"/>
<path d="M5454 1601 c-9 -9 -3 -80 7 -87 7 -4 39 -8 73 -9 33 -2 64 -3 67 -4
3 0 5 -107 4 -235 0 -129 3 -244 7 -255 6 -17 16 -21 50 -21 24 0 48 4 55 8 9
6 14 75 17 251 3 134 7 245 9 248 3 2 35 5 72 6 74 2 82 10 81 72 l-1 30 -218
0 c-120 0 -220 -2 -223 -4z"/>
</g>
</svg>
