<?xml version="1.0" standalone="no"?>
<!DOCTYPE svg PUBLIC "-//W3C//DTD SVG 20010904//EN"
 "http://www.w3.org/TR/2001/REC-SVG-20010904/DTD/svg10.dtd">
<svg version="1.0" xmlns="http://www.w3.org/2000/svg"
 width="2048.000000pt" height="2048.000000pt" viewBox="0 0 2048.000000 2048.000000"
 preserveAspectRatio="xMidYMid meet">
<metadata>
Created by potrace 1.14, written by Peter Selinger 2001-2017
</metadata>
<g transform="translate(0.000000,2048.000000) scale(0.100000,-0.100000)"
fill="#000000" stroke="none">
<path d="M3280 16084 c-105 -27 -180 -72 -266 -158 -121 -121 -174 -246 -174
-411 0 -149 53 -284 152 -390 70 -75 396 -312 403 -292 2 6 18 55 35 107 92
280 272 565 490 773 56 54 98 102 94 106 -5 5 -72 52 -149 106 -150 105 -229
146 -313 164 -72 15 -205 13 -272 -5z"/>
<path d="M16900 16071 c-84 -27 -132 -55 -297 -169 l-152 -107 37 -29 c66 -52
206 -199 270 -284 129 -169 239 -373 303 -562 19 -55 37 -100 42 -100 20 0
350 245 394 293 216 237 200 599 -35 824 -64 60 -163 116 -248 138 -81 21
-243 19 -314 -4z"/>
<path d="M4194 15592 c-255 -212 -451 -522 -538 -849 l-24 -92 81 -59 c45 -32
667 -471 1382 -977 715 -505 1304 -922 1309 -926 5 -5 -49 -158 -124 -354
-129 -338 -132 -347 -114 -365 37 -35 1297 -1050 1300 -1047 2 1 19 57 39 122
153 506 442 963 822 1300 l83 75 -70 46 c-38 26 -70 49 -70 51 0 2 36 -15 81
-37 70 -36 83 -39 99 -28 226 166 334 235 489 312 l94 48 -34 20 c-18 11 -193
112 -389 223 l-355 203 -480 122 -480 122 -1507 1064 c-829 586 -1514 1067
-1522 1070 -7 3 -39 -16 -72 -44z"/>
<path d="M14704 14561 l-1511 -1067 -482 -123 -483 -123 -376 -215 c-207 -119
-383 -221 -391 -228 -11 -11 4 -22 86 -64 117 -60 320 -191 415 -267 l67 -54
113 56 c62 31 109 52 103 47 -7 -7 -157 -104 -183 -119 -1 -1 67 -71 151 -155
374 -375 605 -774 754 -1307 l18 -63 670 541 c369 298 674 545 678 550 5 4
-50 162 -122 350 -72 188 -131 345 -131 349 0 4 623 448 1386 987 l1385 979
-5 43 c-15 114 -126 374 -226 527 -100 152 -243 307 -361 391 l-44 32 -1511
-1067z"/>
<path d="M17329 13685 c838 -902 668 -1948 -454 -2790 -519 -389 -1171 -710
-1990 -980 -176 -58 -346 -112 -378 -121 l-57 -16 267 -202 c279 -210 463
-352 671 -519 l124 -98 66 26 c321 127 763 337 1029 489 424 242 756 489 1049
781 94 93 209 217 254 275 674 851 673 1766 -2 2612 -106 133 -361 389 -508
509 -162 133 -165 135 -71 34z"/>
<path d="M2481 13053 c-139 -186 -273 -433 -339 -624 -116 -333 -131 -703 -42
-1049 60 -236 201 -523 368 -750 457 -622 1277 -1186 2360 -1625 l143 -58 37
30 c149 120 556 435 744 577 135 101 222 173 215 177 -7 4 -101 32 -210 63
-801 231 -1570 564 -2107 913 -708 462 -1117 975 -1227 1538 -26 135 -24 367
5 512 22 108 77 286 109 346 27 53 8 36 -56 -50z"/>
<path d="M10065 12664 c-321 -32 -541 -85 -792 -190 -301 -126 -616 -346 -831
-580 -342 -374 -548 -803 -629 -1316 -24 -158 -25 -517 0 -678 109 -704 482
-1298 1062 -1687 107 -72 89 -73 217 24 490 372 955 834 1289 1283 566 759
926 1625 1063 2555 13 94 26 187 28 209 l3 39 -110 58 c-244 130 -531 223
-820 265 -100 14 -404 26 -480 18z"/>
<path d="M11726 12108 c-3 -18 -15 -91 -27 -163 -239 -1488 -1027 -2796 -2292
-3807 -81 -65 -148 -121 -149 -125 0 -5 39 -24 87 -43 l88 -34 105 54 c58 30
177 97 266 150 1061 630 1810 1480 2219 2520 101 256 177 506 237 778 l20 94
-64 91 c-123 176 -306 376 -443 485 l-42 33 -5 -33z"/>
<path d="M12456 11095 c-374 -1340 -1222 -2422 -2489 -3175 -69 -41 -123 -78
-119 -82 18 -17 257 -30 446 -25 368 9 661 81 991 242 621 303 1069 834 1269
1505 143 481 122 1054 -57 1530 l-24 65 -17 -60z"/>
<path d="M13056 10162 c-11 -184 -27 -322 -53 -457 -14 -71 -26 -135 -27 -141
0 -7 58 -65 129 -129 571 -516 1339 -1304 2106 -2160 112 -125 380 -431 433
-495 28 -32 -30 20 -414 375 -782 723 -1486 1349 -2144 1909 -114 97 -209 176
-211 174 -1 -2 -19 -43 -40 -93 -126 -308 -316 -600 -567 -868 -55 -59 -99
-109 -97 -111 2 -2 94 -75 204 -163 392 -315 699 -598 1250 -1154 364 -368
645 -663 980 -1029 266 -290 341 -374 326 -365 -8 4 -186 157 -395 339 -986
857 -1942 1664 -2524 2130 l-73 59 -37 -28 c-86 -63 -241 -160 -338 -212
l-104 -55 58 -47 c31 -26 930 -753 1997 -1616 1067 -862 1947 -1574 1956
-1582 29 -24 270 -39 432 -25 260 22 458 77 682 188 170 84 294 174 431 309
295 293 473 651 575 1156 16 80 32 181 35 223 l7 76 -67 87 c-414 540 -1262
1341 -2306 2179 -663 532 -1215 943 -2137 1590 l-61 44 -6 -108z"/>
<path d="M7154 10072 c-1099 -779 -1944 -1433 -2709 -2097 -654 -567 -1245
-1160 -1524 -1529 l-69 -92 20 -134 c111 -767 449 -1311 998 -1607 282 -153
666 -231 996 -203 106 9 134 15 160 33 62 45 3984 3221 3984 3226 0 3 -53 33
-118 66 -64 33 -172 97 -240 142 l-124 82 -241 -196 c-647 -526 -2029 -1701
-2722 -2312 -116 -103 567 636 1081 1170 598 620 1150 1131 1572 1458 45 35
82 64 82 65 0 1 -45 49 -101 106 -237 245 -435 536 -564 827 -26 60 -51 112
-55 116 -24 26 -1673 -1435 -2607 -2311 -73 -69 -133 -122 -133 -118 0 10 392
455 678 768 649 714 1270 1348 1760 1797 111 102 200 191 198 197 -3 7 -16 68
-30 136 -33 157 -56 357 -56 475 0 51 -3 93 -7 92 -5 0 -107 -71 -229 -157z"/>
</g>
</svg>
