<svg width="162" height="112" viewBox="0 0 162 112" fill="none" xmlns="http://www.w3.org/2000/svg">
<path d="M40.7226 34.6533V35.272C40.4958 35.067 40.2762 34.862 40.064 34.6533H40.7226Z" fill="#1B6EBB"/>
<path d="M126.177 25.8541C126.177 26.4628 126.119 27.0702 126.006 27.6684C125.618 29.7349 124.571 31.7161 122.962 33.5649C122.435 34.1674 121.873 34.7375 121.278 35.2722C120.961 35.5607 120.627 35.8437 120.28 36.1231C112.506 42.397 97.828 46.628 81.0002 46.628C64.3085 46.628 49.7214 42.4551 41.9017 36.2682C41.4892 35.9417 41.0961 35.6096 40.7224 35.2722V34.6535H40.0638C37.8721 32.4999 36.4606 30.1467 35.9943 27.6684C35.881 27.0702 35.8239 26.4628 35.8237 25.8541C35.8237 23.2723 36.847 20.8012 38.7266 18.5224C38.142 19.67 37.8314 20.9375 37.8195 22.2254C37.8198 22.5695 37.8428 22.9131 37.8884 23.2541C38.3819 26.9771 41.5406 30.3989 46.5717 33.1857C54.3624 37.4965 66.6417 40.2779 80.4559 40.2779H81.0909C84.0356 40.2779 86.8804 40.1345 89.5674 39.8642C89.7017 39.8533 89.8341 39.8388 89.9647 39.8261C100.232 38.8373 109.077 36.2864 115.042 32.7848C120.108 29.8147 123.092 26.1661 123.092 22.2254C123.092 22.122 123.092 22.0168 123.092 21.9134C122.996 19.4731 121.753 17.1508 119.585 15.0371C123.765 18.1886 126.177 21.8916 126.177 25.8541Z" fill="white"/>
<path d="M121.278 20.5017C121.278 24.6293 117.813 28.4157 112.047 31.3676C111.508 31.6434 110.948 31.9119 110.369 32.1732C110.609 31.7738 110.779 31.3363 110.871 30.8796C110.915 30.6584 110.937 30.4336 110.937 30.2083C110.937 24.6474 97.5743 20.1388 81.0912 20.1388C64.6081 20.1388 51.2457 24.6474 51.2457 30.2083C51.2459 30.4566 51.2727 30.7041 51.3255 30.9467C51.4306 31.425 51.6185 31.8812 51.8807 32.2948C51.2759 32.0238 50.6893 31.7456 50.1208 31.4602C44.2551 28.4847 40.7227 24.6746 40.7227 20.5017C40.7227 20.3511 40.7227 20.2023 40.7354 20.0517C40.8605 18.0125 41.8239 16.0602 43.5058 14.2604C45.1387 12.5096 47.4284 10.9003 50.2533 9.48698H50.266C55.7089 6.76551 63.1149 4.78609 71.5606 3.92973C72.3371 3.8499 73.1233 3.78035 73.9192 3.72108C76.2161 3.53965 78.582 3.45801 80.995 3.45801C83.4734 3.45801 85.8937 3.55235 88.2523 3.73378C89.047 3.79547 89.8332 3.86683 90.6109 3.94787C102.538 5.18524 112.383 8.6651 117.485 13.2843C117.84 13.6061 118.172 13.9327 118.481 14.2641C120.153 16.0657 121.126 18.0161 121.251 20.0554C121.278 20.2023 121.278 20.3511 121.278 20.5017Z" fill="#9DC1E2"/>
<path d="M124.181 35.6079V52.9274C123.342 54.1006 122.368 55.1711 121.278 56.1169C113.747 62.7755 98.6194 67.3113 81.182 67.3113C63.4616 67.3113 48.1233 62.6194 40.7227 55.7904C39.6118 54.7849 38.636 53.6396 37.8198 52.3831V35.6079C38.4263 36.5033 39.1177 37.3382 39.8845 38.1008C40.1512 38.3711 40.4288 38.636 40.7227 38.8991C48.1905 45.6411 63.4235 50.2567 81.0005 50.2567C98.5776 50.2567 113.811 45.6411 121.278 38.9009C121.641 38.5779 121.981 38.2502 122.298 37.9175C122.994 37.2055 123.624 36.4325 124.181 35.6079Z" fill="#9DC1E2"/>
<path d="M111.524 69.0737C110.88 69.0762 110.238 69.0232 109.604 68.9152L109.022 68.8156L55.7782 25.7534L57.2159 22.02L40.2355 10.007C39.0427 9.16302 38.234 7.87979 37.9873 6.43957C37.7406 4.99936 38.0762 3.52014 38.9201 2.32732C39.7641 1.1345 41.0473 0.325794 42.4875 0.0791069C43.9277 -0.167581 45.4069 0.167958 46.5998 1.01191L65.7853 14.56L70.9926 15.889L71.2552 16.0361C104.562 34.8639 120.156 49.5938 123.734 54.7513L124.216 55.4464L124.125 56.2886C123.1 65.7161 116.941 69.0737 111.524 69.0737Z" fill="#1B6EBB"/>
<path d="M70.139 18.0082L64.8185 16.6497L45.2934 2.86169C44.5903 2.38337 43.7275 2.20023 42.8907 2.35169C42.0539 2.50315 41.31 2.9771 40.8192 3.67153C40.3283 4.36596 40.1297 5.22534 40.2662 6.06472C40.4026 6.90409 40.8631 7.65634 41.5486 8.15956L59.9508 21.1778L58.4792 25.0267L109.986 66.6852C113.496 67.2897 120.786 66.006 121.872 56.0442C118.515 51.2263 103.466 36.845 70.139 18.0082ZM93.2323 49.3652C92.8633 49.0618 92.4806 48.7517 92.1003 48.437C91.8852 48.2604 91.6656 48.0838 91.446 47.9072C88.6861 45.6861 85.5413 43.2342 82.666 41.0177L82.2766 40.7188L81.98 40.4924L81.2147 39.906C81.088 39.8109 80.9657 39.7158 80.8434 39.6208C80.5967 39.4328 80.3544 39.2495 80.1167 39.0638L79.0707 38.2669C78.9575 38.1786 78.8443 38.0948 78.7333 38.011L78.6292 37.9318L77.667 37.2005L77.4655 37.0465L77.1689 36.8201L76.2135 36.0956L75.7312 35.7334L74.8618 35.0768L74.5743 34.8504L74.0581 34.4723C73.9743 34.4067 73.8996 34.3523 73.8317 34.3048C73.6868 34.1961 73.5917 34.1259 73.5532 34.0942L74.1804 34.461L74.3253 34.547C74.6535 34.7417 75.0724 34.9998 75.5659 35.2896L75.6905 35.3643C76.2225 35.6836 76.8361 36.0571 77.5017 36.4737L77.6625 36.5733C78.0956 36.839 78.5485 37.1213 79.0209 37.4201L79.2745 37.5786L79.6435 37.805L80.0193 38.0427L80.3137 38.2306L80.3997 38.285L80.9861 38.6585L81.183 38.7853L81.4819 38.9778L82.1905 39.4306C83.5761 40.3362 85.0319 41.2962 86.4922 42.3014L87.2711 42.8425L87.7714 43.1934C88.179 43.481 88.5865 43.7708 88.9895 44.0628L89.4559 44.4002C89.714 44.5903 89.9721 44.7783 90.2257 44.9684C91.7494 46.1005 93.1916 47.2325 94.4639 48.3351C99.8094 52.9537 107.143 61.2401 107.143 61.2401C107.143 61.2401 98.7611 53.8978 93.2323 49.3652ZM92.3267 37.479C84.1173 31.0219 70.4854 22.2963 69.8243 21.8706C70.542 22.2329 85.9262 30.0212 94.4775 37.0262C101.666 42.9127 111.118 54.0065 111.118 54.0065C111.118 54.0065 100.006 43.5285 92.3267 37.479Z" fill="white"/>
<path fill-rule="evenodd" clip-rule="evenodd" d="M49.5649 4.01156C46.3384 5.32402 44.9494 8.61055 44.6738 10.0807C44.5971 10.4896 44.2035 10.7589 43.7947 10.6822C43.3858 10.6055 43.1166 10.212 43.1932 9.80312C43.5201 8.05969 45.1137 4.19598 48.9973 2.61621L49.5649 4.01156Z" fill="#1B6EBB"/>
<path d="M50.6586 69.1166C51.3019 69.1192 51.9443 69.0662 52.5785 68.9582L53.1603 68.8586L106.404 25.7964L104.966 22.063L121.947 10.0499C123.139 9.20599 123.948 7.92276 124.195 6.48254C124.442 5.04233 124.106 3.56311 123.262 2.37029C122.418 1.17747 121.135 0.368763 119.695 0.122076C118.254 -0.124612 116.775 0.210927 115.582 1.05488L96.3968 14.6029L91.1895 15.9319L90.9269 16.0791C57.6205 34.9069 42.0258 49.6368 38.4486 54.7943L37.9663 55.4894L38.0569 56.3316C39.0825 65.7591 45.2407 69.1166 50.6586 69.1166Z" fill="#1B6EBB"/>
<path d="M92.0426 18.0506L97.3631 16.6922L116.888 2.90417C117.591 2.42585 118.454 2.24271 119.291 2.39417C120.128 2.54563 120.872 3.01958 121.362 3.71401C121.853 4.40844 122.052 5.26782 121.915 6.1072C121.779 6.94657 121.319 7.69882 120.633 8.20204L102.231 21.2203L103.702 25.0692L52.1954 66.7277C48.6861 67.3322 41.3959 66.0484 40.3092 56.0866C43.6667 51.2687 58.7158 36.8875 92.0426 18.0506ZM68.9493 49.4077C69.3184 49.1043 69.701 48.7941 70.0814 48.4794C70.2964 48.3028 70.5161 48.1262 70.7357 47.9496C73.4955 45.7286 76.6403 43.2767 79.5156 41.0602L79.9051 40.7613L80.2016 40.5349L80.9669 39.9485C81.0937 39.8534 81.2159 39.7583 81.3382 39.6632C81.585 39.4753 81.8272 39.2919 82.065 39.1063L83.1109 38.3093C83.2242 38.221 83.3374 38.1373 83.4483 38.0535L83.5524 37.9743L84.5147 37.243L84.7162 37.089L85.0127 36.8626L85.9682 36.1381L86.4504 35.7759L87.3198 35.1193L87.6073 34.8929L88.1235 34.5148C88.2073 34.4491 88.282 34.3948 88.35 34.3473C88.4949 34.2386 88.5899 34.1684 88.6284 34.1367L88.0013 34.5035L87.8564 34.5895C87.5281 34.7842 87.1093 35.0423 86.6157 35.3321L86.4912 35.4068C85.9591 35.7261 85.3456 36.0996 84.6799 36.5162L84.5192 36.6158C84.086 36.8815 83.6332 37.1637 83.1608 37.4626L82.9072 37.6211L82.5381 37.8475L82.1623 38.0852L81.868 38.2731L81.782 38.3274L81.1956 38.701L80.9986 38.8278L80.6997 39.0202L79.9911 39.4731C78.6055 40.3787 77.1497 41.3386 75.6894 42.3439L74.9106 42.885L74.4102 43.2359C74.0027 43.5234 73.5952 43.8132 73.1922 44.1053L72.7258 44.4426C72.4677 44.6328 72.2096 44.8207 71.956 45.0109C70.4323 46.1429 68.9901 47.275 67.7177 48.3776C62.3723 52.9962 55.039 61.2826 55.039 61.2826C55.039 61.2826 63.4205 53.9403 68.9493 49.4077ZM69.855 37.5215C78.0644 31.0644 91.6962 22.3387 92.3573 21.9131C91.6396 22.2754 76.2554 30.0637 67.7041 37.0686C60.5158 42.9552 51.0634 54.049 51.0634 54.049C51.0634 54.049 62.1753 43.571 69.855 37.5215Z" fill="white"/>
<path fill-rule="evenodd" clip-rule="evenodd" d="M112.642 4.16195C115.868 5.47441 117.257 8.76094 117.533 10.2311C117.609 10.64 118.003 10.9093 118.412 10.8326C118.821 10.7559 119.09 10.3624 119.013 9.95351C118.686 8.21008 117.093 4.34637 113.209 2.7666L112.642 4.16195Z" fill="#1B6EBB"/>
<circle cx="80.9593" cy="34.2236" r="15.6354" transform="rotate(15.3484 80.9593 34.2236)" fill="#1B6EBB"/>
<path fill-rule="evenodd" clip-rule="evenodd" d="M75.5565 46.5091C75.9057 46.6622 76.2641 46.8015 76.631 46.9261C87.4448 41.4062 91.1266 33.184 92.3247 27.0882C91.5159 25.7992 90.4882 24.6452 89.2764 23.6877C88.3798 30.5485 85.1245 39.2878 75.5565 46.5091ZM87.898 22.733C86.8655 22.1102 85.7312 21.6173 84.5112 21.2825C77.3641 19.3207 69.98 23.5243 68.0183 30.6713C66.3843 36.6246 69.0279 42.7423 74.0871 45.7536C84.094 38.4654 87.1733 29.5164 87.898 22.733ZM93.9001 37.7753C92.0623 44.4708 85.4656 48.583 78.7632 47.463C88.0085 42.2444 91.8416 35.0229 93.3767 29.1336C94.4649 31.783 94.7168 34.7997 93.9001 37.7753Z" fill="#F2F9FF"/>
<path d="M11.7896 111.044C7.96726 111.044 5.04076 110.021 3.01012 107.976C1.00337 105.907 0 102.718 0 98.4088C0 94.2216 0.967538 91.0568 2.90262 88.9145C4.83769 86.7478 7.80003 85.6645 11.7896 85.6645C13.0558 85.6645 14.3339 85.8227 15.624 86.1392C16.914 86.4557 18.1682 86.8939 19.3866 87.4538V92.6027C18.1443 91.7749 16.9498 91.1785 15.8031 90.8133C14.6564 90.4482 13.5814 90.2656 12.578 90.2656C11.1685 90.2656 9.97401 90.5212 8.99453 91.0324C8.03893 91.5437 7.29835 92.3957 6.77277 93.5886C6.27108 94.7815 6.02024 96.3882 6.02024 98.4088C6.02024 100.429 6.27108 102.024 6.77277 103.193C7.29835 104.361 8.06282 105.201 9.0662 105.712C10.0935 106.199 11.3477 106.443 12.8288 106.443C13.7128 106.443 14.7161 106.272 15.839 105.931C16.9618 105.59 18.1443 105.006 19.3866 104.178V109.327C18.7177 109.668 17.9532 109.973 17.0932 110.24C16.257 110.484 15.3731 110.678 14.4414 110.825C13.5336 110.971 12.6497 111.044 11.7896 111.044Z" fill="white"/>
<path d="M23.6109 110.569V94.0268C23.9454 93.7347 24.5426 93.406 25.4026 93.0409C26.2627 92.6513 27.2422 92.3105 28.3411 92.0184C29.4639 91.7019 30.5867 91.5437 31.7096 91.5437C32.8324 91.5437 33.7163 91.6289 34.3613 91.7993C35.0064 91.9697 35.4961 92.1888 35.8306 92.4566V96.4369C35.4244 96.3395 34.9108 96.2665 34.2897 96.2178C33.6685 96.1691 33.0235 96.1448 32.3546 96.1448C31.6857 96.1204 31.0526 96.1204 30.4553 96.1448C29.8581 96.1691 29.3564 96.2178 28.9503 96.2909V110.569H23.6109Z" fill="white"/>
<path d="M39.0462 110.569V92.347H44.3856L44.4214 110.569H39.0462ZM38.9387 89.5718V85.3723H44.4572V89.5718H38.9387Z" fill="white"/>
<path d="M57.685 111.044C56.395 111.044 55.1766 110.849 54.0299 110.459C52.8831 110.07 51.8678 109.486 50.9839 108.707C50.1 107.928 49.4072 106.942 48.9055 105.749C48.4038 104.556 48.153 103.168 48.153 101.586C48.153 99.906 48.3919 98.4453 48.8697 97.2038C49.3475 95.9379 50.0044 94.891 50.8406 94.0633C51.7006 93.2356 52.704 92.6148 53.8507 92.201C54.9974 91.7871 56.2636 91.5802 57.6492 91.5802C58.6287 91.5802 59.632 91.6897 60.6593 91.9088C61.7104 92.1036 62.6302 92.3836 63.4186 92.7487V97.4229C62.5824 97.0334 61.7582 96.7169 60.946 96.4734C60.1576 96.2057 59.3453 96.0718 58.5092 96.0718C57.0041 96.0718 55.7858 96.4613 54.8541 97.2403C53.9462 97.995 53.4923 99.2365 53.4923 100.965C53.4923 102.791 53.8985 104.166 54.7107 105.091C55.523 106.017 56.8727 106.479 58.76 106.479C59.644 106.479 60.4921 106.321 61.3043 106.004C62.1405 105.688 62.8572 105.359 63.4544 105.018V109.656C62.6183 110.094 61.7463 110.435 60.8385 110.678C59.9307 110.922 58.8795 111.044 57.685 111.044Z" fill="white"/>
<path d="M67.3587 110.569V86.2122H77.4999C79.2439 86.2122 80.749 86.4435 82.0151 86.906C83.3052 87.3442 84.3086 88.0624 85.0253 89.0605C85.7419 90.0343 86.1003 91.3367 86.1003 92.9678C86.1003 94.0633 85.8375 94.9641 85.3119 95.6701C84.7864 96.3761 84.1533 96.9482 83.4127 97.3864C82.6721 97.8002 81.9793 98.1289 81.3343 98.3723L80.6892 97.0942C82.0032 97.1429 83.1499 97.4229 84.1294 97.9341C85.1328 98.421 85.9092 99.1148 86.4586 100.016C87.032 100.892 87.3187 101.951 87.3187 103.193C87.3187 104.897 86.9125 106.296 86.1003 107.392C85.3119 108.463 84.2488 109.267 82.911 109.802C81.5732 110.313 80.092 110.569 78.4675 110.569H67.3587ZM73.1639 106.004H78.0375C78.6347 106.004 79.1842 105.919 79.6859 105.749C80.1876 105.554 80.5937 105.237 80.9043 104.799C81.2148 104.337 81.3701 103.728 81.3701 102.973C81.3701 102.414 81.2745 101.951 81.0834 101.586C80.8923 101.221 80.6295 100.941 80.2951 100.746C79.9845 100.527 79.6261 100.369 79.22 100.271C78.8139 100.174 78.3839 100.125 77.93 100.125H73.1639V106.004ZM73.1639 95.7796H77.8225C78.2286 95.7796 78.6108 95.7066 78.9692 95.5605C79.3275 95.3901 79.6142 95.1345 79.8292 94.7937C80.0681 94.4528 80.1876 94.0025 80.1876 93.4425C80.1876 92.4444 79.9248 91.7628 79.3992 91.3976C78.8736 91.0081 78.2286 90.8133 77.4641 90.8133H73.1639V95.7796Z" fill="white"/>
<path d="M91.221 110.569V94.0268C91.5555 93.7347 92.1527 93.406 93.0128 93.0409C93.8728 92.6513 94.8523 92.3105 95.9512 92.0184C97.074 91.7019 98.1969 91.5437 99.3197 91.5437C100.443 91.5437 101.326 91.6289 101.971 91.7993C102.616 91.9697 103.106 92.1888 103.441 92.4566V96.4369C103.035 96.3395 102.521 96.2665 101.9 96.2178C101.279 96.1691 100.634 96.1448 99.9647 96.1448C99.2958 96.1204 98.6627 96.1204 98.0655 96.1448C97.4682 96.1691 96.9665 96.2178 96.5604 96.2909V110.569H91.221Z" fill="white"/>
<path d="M113.537 111.117C112.438 111.117 111.398 111.007 110.419 110.788C109.463 110.593 108.615 110.265 107.875 109.802C107.158 109.315 106.597 108.67 106.19 107.867C105.784 107.039 105.581 106.017 105.581 104.799C105.581 103.655 105.808 102.657 106.262 101.805C106.74 100.953 107.457 100.296 108.412 99.833C109.368 99.3704 110.574 99.1392 112.032 99.1392C112.844 99.1392 113.632 99.2244 114.397 99.3948C115.161 99.5652 115.842 99.7965 116.439 100.089C117.06 100.381 117.55 100.697 117.908 101.038L118.123 103.667C117.646 103.375 117.072 103.144 116.403 102.973C115.734 102.803 115.018 102.718 114.253 102.718C113.083 102.718 112.223 102.9 111.673 103.266C111.148 103.606 110.885 104.154 110.885 104.909C110.885 105.371 111.016 105.785 111.279 106.15C111.542 106.516 111.888 106.796 112.318 106.99C112.772 107.185 113.238 107.282 113.716 107.282C114.934 107.282 115.782 107.197 116.26 107.027C116.762 106.856 117.013 106.516 117.013 106.004V99.2122C117.013 98.0924 116.654 97.289 115.937 96.8021C115.245 96.2909 114.253 96.0352 112.963 96.0352C111.912 96.0352 110.849 96.23 109.774 96.6195C108.723 96.9847 107.863 97.4351 107.194 97.9706V93.1504C107.815 92.7609 108.771 92.3957 110.061 92.0549C111.375 91.7141 112.844 91.5437 114.468 91.5437C115.042 91.5437 115.675 91.5924 116.368 91.6897C117.06 91.7871 117.753 91.9697 118.446 92.2375C119.139 92.4809 119.772 92.8461 120.345 93.333C120.942 93.8199 121.42 94.4407 121.779 95.1954C122.137 95.95 122.316 96.8873 122.316 98.0071L122.28 106.735C122.28 107.781 121.934 108.634 121.241 109.291C120.548 109.924 119.545 110.386 118.231 110.678C116.941 110.971 115.376 111.117 113.537 111.117Z" fill="white"/>
<path d="M131.643 110.569L125.551 92.0914H131.32L135.369 107.027L133.685 107.1L137.52 92.0914H141.461L145.224 106.662H143.898L147.768 92.0914H153.43L147.41 110.569H142.572L138.989 98.6279L139.885 98.7375L136.48 110.569H131.643Z" fill="white"/>
<path d="M162 110.569H156.696V85.1167H162V110.569Z" fill="white"/>
</svg>
