<svg width="616" height="114" viewBox="0 0 616 114" fill="none" xmlns="http://www.w3.org/2000/svg">
<g clip-path="url(#clip0_84_31)">
<path d="M12.5903 66.7456V67.6222L11.6479 66.7456H12.5903Z" fill="#1B6EBB"/>
<path d="M22.7159 65.595C20.4805 67.3482 18.3984 69.0321 16.4698 70.6466C15.6918 70.1206 14.9686 69.5508 14.2782 69.0358C13.5879 68.5208 13.1824 68.0934 12.6016 67.6222V66.7346H11.6592C8.76116 64.0945 6.74187 60.6295 5.8734 56.8066C5.71664 55.9534 5.63596 55.088 5.63232 54.2205C5.7401 50.3807 7.19914 46.7021 9.75255 43.8323C8.92221 45.4626 8.47969 47.2627 8.4595 49.0921C8.45923 49.5833 8.49218 50.0738 8.55812 50.5605C9.25944 55.8533 13.7522 60.7186 20.9078 64.6854C21.4886 64.9703 22.0913 65.2881 22.7159 65.595Z" fill="#1B6EBB"/>
<path d="M80.081 83.3908C76.7936 83.6319 73.3418 83.7634 69.8681 83.7634C66.3944 83.7634 63.2056 83.6429 60.0059 83.4127L65.7479 78.7336C68.5717 79.2708 71.4714 79.2708 74.2952 78.7336L80.081 83.3908Z" fill="#1B6EBB"/>
<path d="M134.115 54.2204C134.117 55.0881 134.036 55.954 133.874 56.8065C133.194 59.9441 131.679 62.8401 129.491 65.1894C128.746 66.0455 127.952 66.8577 127.113 67.6221C126.653 68.0275 126.182 68.433 125.689 68.8275C124.976 69.4082 124.22 69.9233 123.42 70.526C121.316 68.7727 119.037 66.9463 116.583 65.0469C117.152 64.7401 117.678 64.4333 118.237 64.1155C125.448 59.8857 129.688 54.7025 129.688 49.092V48.6537C129.557 45.18 127.782 41.8816 124.702 38.8682C130.686 43.3171 134.115 48.5879 134.115 54.2204Z" fill="#1B6EBB"/>
<path d="M80.2675 39.449C80.2621 39.5146 80.2621 39.5806 80.2675 39.6462L80.125 39.5476L80.2675 39.449Z" fill="#5C97CE"/>
<path d="M13.2701 73.4191C11.5277 74.9094 9.98264 76.3449 8.45947 77.6928V68.0935C9.32542 69.3661 10.3086 70.5547 11.3962 71.6439C11.7798 72.0274 12.1743 72.4 12.5907 72.7397L13.2701 73.4191Z" fill="#1B6EBB"/>
<path d="M109.339 107.049C98.4906 110.896 84.8916 113.186 70.1312 113.186C55.3707 113.186 41.6402 110.885 30.8027 107.005L54.2529 88.037C59.4366 88.633 64.6504 88.9294 69.8682 88.9246C75.189 88.9298 80.5055 88.6224 85.7902 88.0042L109.339 107.049Z" fill="#BED6EC"/>
<path d="M131.277 68.0935V77.3202C129.853 76.0271 128.319 74.6574 126.642 73.2109C126.818 73.0776 126.986 72.935 127.146 72.7835C127.672 72.3233 128.154 71.8521 128.604 71.3809C129.593 70.3684 130.488 69.268 131.277 68.0935Z" fill="#1B6EBB"/>
<path d="M5.24848 12.1307L2.26789 10.0267C1.10049 9.16356 0.316518 7.87847 0.083148 6.44549C-0.150222 5.01252 0.185482 3.54508 1.01867 2.3561C1.86043 1.166 3.13542 0.353564 4.5697 0.0933439C6.00399 -0.166876 7.48312 0.145884 8.6893 0.964427L11.2535 2.77251C8.3302 5.19405 6.23175 8.46425 5.24848 12.1307Z" fill="#1B6EBB"/>
<path d="M127.113 46.6155C127.113 52.4781 122.193 57.8694 113.963 62.0664C113.711 62.1869 113.47 62.3184 113.218 62.428C112.681 62.7019 112.122 62.954 111.574 63.206C111.862 62.7295 112.076 62.2123 112.21 61.6719C112.241 61.5747 112.266 61.4759 112.287 61.376C112.349 61.0584 112.378 60.7353 112.374 60.4117C112.374 56.5764 107.893 53.0808 100.583 50.5495L113.295 40.2708L110.829 33.8823L114.325 31.4058C116.982 32.7426 119.457 34.4145 121.689 36.3807C122.193 36.841 122.664 37.3012 123.113 37.7724C125.376 39.9664 126.792 42.8883 127.113 46.0238C127.127 46.2208 127.127 46.4186 127.113 46.6155Z" fill="#BED6EC"/>
<path d="M8.67856 0.953441C7.47238 0.134898 5.99324 -0.177863 4.55896 0.0823576C3.12467 0.342578 1.84968 1.15501 1.00793 2.34511C0.17474 3.53409 -0.160964 5.00154 0.0724058 6.43451C0.305775 7.86748 1.08975 9.15258 2.25714 10.0157L5.23773 12.1197C6.21597 8.45069 8.31065 5.17656 11.2318 2.75056L8.67856 0.953441Z" fill="#1B6EBB"/>
<path d="M56.7518 36.6767C53.3219 34.8467 51.0426 33.6961 50.7029 33.5207C51.0207 33.718 53.0808 35.0439 56.1819 37.0821C52.7082 39.6394 50.0174 43.1157 48.4127 47.1197C48.2666 47.4557 48.1351 47.821 48.0182 48.2155L46.2649 48.599L44.5774 49.7496L43.887 49.1908L31.2633 38.9231L33.7946 32.3482L29.5868 29.3676L7.48438 13.7086C7.57098 13.5942 7.63428 13.4639 7.67066 13.3251C8.48142 9.75137 10.536 6.58216 13.4675 4.3833L42.1228 24.579L43.8432 25.0173L51.2399 26.9021C55.287 29.196 59.1771 31.446 62.9102 33.6522C60.7204 34.3536 58.6455 35.3726 56.7518 36.6767Z" fill="#1B6EBB"/>
<path d="M138.981 2.42182C138.143 1.22705 136.867 0.410893 135.431 0.150366C133.995 -0.110162 132.515 0.205955 131.31 1.03015L128.647 2.91493C131.622 5.29204 133.77 8.54809 134.784 12.2183L137.765 10.1034C138.932 9.24024 139.716 7.95514 139.949 6.52217C140.183 5.0892 139.847 3.62176 139.014 2.43278L138.981 2.42182ZM80.1033 39.5915L80.2457 39.6901C80.2403 39.6245 80.2403 39.5585 80.2457 39.4929L80.1033 39.5915ZM66.9536 72.7834L66.4824 73.156C66.6578 73.0537 66.8331 72.9441 67.0084 72.8273L66.9536 72.7834Z" fill="#1B6EBB"/>
<path d="M89.9762 57.1683C89.9176 57.9031 89.8225 58.6345 89.6913 59.3599C89.6255 59.7105 89.5598 60.0502 89.4721 60.4557C89.3844 60.8611 89.3625 60.9269 89.2968 61.157C88.2348 65.0523 86.0099 68.531 82.9192 71.1288C82.264 71.6942 81.5681 72.2106 80.8372 72.6739C79.6768 73.4268 78.4341 74.0444 77.1333 74.5148C76.7208 74.6785 76.3002 74.8211 75.8732 74.9422C74.2179 75.4585 72.4999 75.7461 70.7667 75.7969C70.3174 75.7969 69.8572 75.7969 69.4079 75.7969C68.5169 75.8021 67.6267 75.7399 66.7451 75.6106C67.2382 75.3367 67.5341 75.0518 67.9724 74.7669H68.1806L68.8491 74.3614C70.0325 73.6272 71.1503 72.8602 72.2022 72.0822C73.5351 71.102 74.8153 70.0522 76.0375 68.9372C76.5854 68.4331 77.1333 67.94 77.6045 67.4359C80.1452 64.8854 82.3543 62.0247 84.1794 58.9215C84.5191 58.3188 84.8478 57.7271 85.1546 57.1354C85.6003 56.2733 86.0057 55.4186 86.371 54.5712C87.0992 52.9125 87.7142 51.2065 88.2119 49.4647C88.3325 49.0703 88.4421 48.6758 88.5407 48.2922C88.7818 48.884 89.0009 49.4976 89.1872 50.1113C89.8725 52.4084 90.1471 54.8085 89.9981 57.2011L89.9762 57.1683Z" fill="#F08420"/>
<path d="M86.9519 45.2019C86.8204 45.8594 86.6779 46.5388 86.5026 47.2292C86.4259 47.5251 86.3492 47.8319 86.2615 48.1497C85.79 49.8849 85.2043 51.5871 84.5082 53.2452C84.1576 54.078 83.7631 54.9108 83.3357 55.7545C81.7909 58.8066 79.8531 61.6433 77.5718 64.1922L75.4678 65.9017L73.8789 67.1728L70.0765 70.252L66.9973 72.7505L66.5261 73.1231L64.6522 74.6681H63.8304H63.3592H63.151C62.7455 74.5366 62.4277 74.3723 62.0552 74.2079C63.2277 73.3203 64.3344 72.4217 65.3426 71.5013C66.3507 70.5808 67.3041 69.737 68.2026 68.8275C69.3273 67.7206 70.3952 66.5576 71.4024 65.3428C71.775 64.9045 72.1366 64.4662 72.4982 64.0169C73.3529 62.9211 74.1419 61.8253 74.8651 60.7295C75.3035 60.072 75.7199 59.4036 76.1034 58.7351C77.2545 56.8087 78.2652 54.8018 79.1278 52.7301C79.4675 51.9192 79.7743 51.1083 80.0592 50.3084C80.4976 49.0811 80.8701 47.8648 81.155 46.6703C81.2975 46.1553 81.418 45.6403 81.5386 45.1362C81.8673 43.7336 82.1194 42.3748 82.3276 41.0488C82.3276 40.7639 82.4043 40.479 82.4371 40.2051C83.4724 41.0211 84.4231 41.9389 85.2753 42.9446C85.8844 43.6584 86.4445 44.4126 86.9519 45.2019Z" fill="#F08420"/>
<path d="M139.858 92.0476C137.995 109.12 125.503 111.312 119.498 110.282L113.503 105.438L91.0504 87.2699L85.5714 82.8867L78.7993 77.4077C80.4701 76.7258 82.0552 75.8505 83.5222 74.7997C84.9577 75.8955 86.3604 77.0461 87.7082 78.0871L88.804 78.9966L90.7436 80.5855L92.3106 81.8786C93.8995 83.1935 95.598 84.6181 97.3075 86.0645C105.219 92.749 113.536 100.036 114.479 100.847C113.668 99.9265 106.94 92.3764 99.9483 85.5057C98.4909 84.0592 97.0116 82.6347 95.5651 81.3197C94.6337 80.454 93.7242 79.6322 92.8366 78.8651C90.9518 77.1447 88.7602 75.4133 86.4371 73.66L85.659 73.0902C88.7517 70.2786 91.024 66.6808 92.2339 62.6801C95.335 65.1676 98.5567 67.9399 101.724 70.7014C104.386 73.0245 106.994 75.3476 109.394 77.5173C110.797 78.7774 112.134 79.9828 113.361 81.1115C117.744 85.1441 120.922 88.0918 121.371 88.5082C120.955 88.0151 118.259 84.8811 114.413 80.6622C113.317 79.4897 112.221 78.2295 110.961 76.9255C108.879 74.7339 106.578 72.3232 104.266 69.9781C100.518 66.2086 96.5952 62.5047 93.0009 59.5461C93.1659 58.5274 93.2611 57.4986 93.2858 56.4669C93.3485 55.2122 93.3009 53.9545 93.1434 52.7083L95.7624 54.5054C102.155 58.9324 107.816 63.0453 112.747 66.8441C115.377 68.875 117.803 70.8109 120.023 72.6519C121.251 73.66 122.423 74.6353 123.53 75.5887C126.518 78.1382 129.1 80.465 131.277 82.5689C134.42 85.4607 137.292 88.6334 139.858 92.0476Z" fill="#1B6EBB"/>
<path d="M27.5594 60.4118C27.5534 60.7801 27.5902 61.1478 27.669 61.5076L27.7347 61.7706C27.8991 62.3445 28.1544 62.8883 28.4908 63.3814C27.8772 63.1075 27.2745 62.8335 26.6937 62.5377L25.9924 62.198C17.6095 57.9682 12.5907 52.5987 12.5907 46.6156C12.5798 46.4003 12.5798 46.1845 12.5907 45.9691C12.8912 42.848 14.2845 39.9334 16.5247 37.7396C19.1377 35.0823 22.1837 32.8886 25.5322 31.2524L29.0826 33.7728L26.617 40.1723L39.4489 50.4948C32.0632 53.0699 27.5594 56.5655 27.5594 60.4118Z" fill="#BED6EC"/>
<path d="M138.981 2.42182C138.143 1.22705 136.867 0.410893 135.431 0.150366C133.995 -0.110162 132.514 0.205955 131.31 1.03015L128.647 2.91493C131.622 5.29204 133.77 8.54809 134.784 12.2183L137.764 10.1034C138.932 9.24024 139.716 7.95514 139.949 6.52217C140.182 5.0892 139.847 3.62176 139.013 2.43278L138.981 2.42182ZM80.103 39.5915L80.2455 39.6901C80.2401 39.6245 80.2401 39.5585 80.2455 39.4929L80.103 39.5915Z" fill="#1B6EBB"/>
<path d="M110.347 29.4773L106.205 32.4031L108.737 38.9779L96.1787 49.1579L95.5212 49.6839L92.946 51.7659C92.7435 50.56 92.443 49.3726 92.0475 48.2155C91.905 47.832 91.7626 47.4594 91.6091 47.1197C90.0137 43.1681 87.3595 39.7329 83.9385 37.1917L83.281 36.7096C81.3971 35.3969 79.3292 34.3703 77.1445 33.6632C80.8484 31.4716 84.7056 29.2435 88.7162 26.9788L96.1239 25.0831L97.8333 24.6448L126.423 4.49292C129.464 6.68669 131.596 9.91828 132.417 13.5771C132.427 13.6581 132.454 13.7362 132.494 13.8073L110.347 29.4773Z" fill="#1B6EBB"/>
<path d="M61.2332 77.4076L54.4392 82.8866L48.9602 87.2699L26.6386 105.384L20.5021 110.348C14.4971 111.443 2.00496 109.186 0.14209 92.1243C2.6347 88.8211 5.41821 85.7479 8.45925 82.9414C10.6509 80.7498 13.3137 78.3938 16.3929 75.7529C17.4887 74.8106 18.6831 73.8134 19.9214 72.7943C21.9924 71.0848 24.2498 69.2877 26.6715 67.4029C31.778 63.4471 37.6624 59.1734 44.3797 54.5163C45.2125 53.9355 46.0563 53.3547 46.922 52.7739C46.7477 53.982 46.6817 55.2032 46.7247 56.423C46.7475 57.4875 46.8427 58.5492 47.0097 59.6008C43.2949 62.6471 39.2404 66.4934 35.3722 70.3945C33.1806 72.5861 30.989 74.8873 29.0056 76.9693C27.7783 78.2843 26.6058 79.5444 25.5428 80.7279C21.7075 84.9248 19.0338 88.0479 18.6174 88.541C19.0666 88.1246 22.1897 85.1878 26.5948 81.1662C27.8331 80.0704 29.17 78.8212 30.5945 77.5501C32.8957 75.479 35.3832 73.2545 37.9254 71.041C41.2128 68.159 44.5989 65.2661 47.7877 62.691C49.0012 66.6838 51.2732 70.2736 54.3625 73.0792L53.4092 73.7915C51.1408 75.6105 49.015 77.2652 47.1192 78.8979C46.2426 79.654 45.3331 80.4649 44.4126 81.3306C42.9771 82.6456 41.4978 84.0701 40.0294 85.5275C33.0381 92.4421 26.2989 99.9922 25.4881 100.869C26.4304 100.058 34.7586 92.7708 42.6703 86.0754C44.3688 84.6947 46.0234 83.2811 47.6671 81.9442L49.2013 80.6841L51.1408 79.0952L52.2366 78.1856C53.6064 77.0898 55.0309 75.994 56.4774 74.8106C57.951 75.8667 59.5481 76.7389 61.2332 77.4076Z" fill="#1B6EBB"/>
<path d="M66.9644 72.7835L66.4932 73.156C66.6685 73.0538 66.8438 72.9442 67.0191 72.8273L66.9644 72.7835ZM80.114 39.5915L80.2565 39.6902C80.2511 39.6245 80.2511 39.5586 80.2565 39.4929L80.114 39.5915Z" fill="#1B6EBB"/>
<path d="M87.0503 23.4832L86.8421 23.5928C81.4289 26.6611 76.2822 29.6563 71.4023 32.5784L70.0544 33.4003L68.6956 32.5784C63.7864 29.6563 58.6069 26.6391 53.1571 23.5271L53.0146 23.4504C54.1105 23.2969 55.283 23.1654 56.4445 23.0449C57.6061 22.9244 58.6361 22.8367 59.7977 22.749C63.0851 22.486 66.3725 22.3765 69.8681 22.3765C73.3637 22.3765 76.8265 22.508 80.1796 22.771C81.3193 22.8586 82.437 22.9572 83.5328 23.0668C84.7163 23.1874 85.8997 23.3298 87.0503 23.4832Z" fill="#BED6EC"/>
<path fill-rule="evenodd" clip-rule="evenodd" d="M66.9644 72.7835L66.4932 73.156C66.6685 73.0538 66.8438 72.9442 67.0191 72.8273L66.9644 72.7835ZM80.114 39.5915L80.2565 39.6902C80.2511 39.6245 80.2511 39.5586 80.2565 39.4929L80.114 39.5915Z" fill="#1B6EBB"/>
<path fill-rule="evenodd" clip-rule="evenodd" d="M80.2676 39.449L80.1032 39.5477L80.2456 39.6463C80.0703 40.9722 79.8402 42.3529 79.5334 43.7665C79.3471 44.6212 79.1389 45.4869 78.8868 46.3745C78.6348 47.2621 78.3828 48.1059 78.0869 48.9825C77.791 49.8592 77.528 50.5167 77.2212 51.2947C75.7571 54.9127 73.8386 58.3299 71.5121 61.4638C71.2053 61.8802 70.8984 62.2966 70.5587 62.702C70.219 63.1075 69.9341 63.491 69.5944 63.8855C68.9808 64.6306 68.3233 65.3648 67.622 66.0771C67.2384 66.4935 66.8439 66.8989 66.4275 67.3044C65.529 68.203 64.5756 69.0796 63.5565 69.9562C62.5374 70.8329 61.1238 71.9725 59.776 72.9478C59.587 72.8413 59.404 72.7242 59.2281 72.5971C58.4918 72.1367 57.792 71.6201 57.1351 71.052C53.8551 68.3057 51.5491 64.5739 50.5603 60.4118C50.4609 60.051 50.3804 59.6852 50.3192 59.316C50.1895 58.6128 50.0981 57.9032 50.0453 57.1901C49.9686 56.1725 49.9686 55.1505 50.0453 54.1328C50.1498 52.9138 50.3662 51.707 50.6918 50.5276C50.6918 50.3961 50.7685 50.2537 50.8123 50.1222C51.08 49.2167 51.4095 48.3307 51.7985 47.4703C52.5443 45.8527 53.5024 44.3418 54.6476 42.9775C55.9469 41.4432 57.4731 40.1166 59.1733 39.0436C59.4692 38.8463 59.776 38.6601 60.0828 38.4847C61.6187 37.6031 63.2662 36.9323 64.9811 36.4904C65.6333 36.3091 66.2955 36.1664 66.9645 36.063C69.714 35.6421 72.5213 35.8026 75.2049 36.5342H75.3036C76.9463 36.9842 78.523 37.6473 79.9936 38.5066L80.3552 38.7149C80.3333 38.9778 80.3004 39.2299 80.2676 39.449Z" fill="#F08420"/>
</g>
<path d="M204.312 91.3961C193.836 91.3961 185.815 88.6433 180.25 83.1377C174.75 77.5666 172 68.9804 172 57.3793C172 46.1059 174.652 37.5853 179.955 31.8175C185.259 25.9842 193.378 23.0675 204.312 23.0675C207.783 23.0675 211.286 23.4935 214.821 24.3456C218.357 25.1976 221.794 26.3774 225.134 27.8849V41.7473C221.729 39.5188 218.455 37.913 215.312 36.9299C212.169 35.9467 209.223 35.4551 206.473 35.4551C202.61 35.4551 199.336 36.1433 196.652 37.5197C194.033 38.8961 192.003 41.1902 190.562 44.4018C189.187 47.6134 188.5 51.9392 188.5 57.3793C188.5 62.8194 189.187 67.1124 190.562 70.2585C192.003 73.4046 194.098 75.6658 196.848 77.0422C199.664 78.3531 203.101 79.0085 207.161 79.0085C209.583 79.0085 212.333 78.5497 215.41 77.6321C218.488 76.7145 221.729 75.1415 225.134 72.913V86.7754C223.3 87.693 221.205 88.5122 218.848 89.2332C216.556 89.8887 214.134 90.413 211.58 90.8063C209.092 91.1995 206.669 91.3961 204.312 91.3961Z" fill="#191919"/>
<path d="M236.711 90.1181V45.5815C237.628 44.795 239.265 43.9102 241.622 42.927C243.979 41.8784 246.664 40.9608 249.676 40.1742C252.753 39.3222 255.83 38.8961 258.908 38.8961C261.985 38.8961 264.408 39.1255 266.176 39.5843C267.943 40.0431 269.286 40.633 270.202 41.354V52.0703C269.089 51.8081 267.681 51.6115 265.979 51.4804C264.277 51.3493 262.509 51.2838 260.676 51.2838C258.842 51.2182 257.107 51.2182 255.47 51.2838C253.833 51.3493 252.458 51.4804 251.345 51.677V90.1181H236.711Z" fill="#191919"/>
<path d="M279.015 90.1181V41.0591H293.649L293.747 90.1181H279.015ZM278.721 33.5872V22.281H293.846V33.5872H278.721Z" fill="#191919"/>
<path d="M330.1 91.3961C326.564 91.3961 323.225 90.8718 320.082 89.8231C316.939 88.7744 314.156 87.2014 311.734 85.104C309.311 83.0066 307.412 80.3521 306.037 77.1405C304.662 73.9289 303.975 70.193 303.975 65.9327C303.975 61.4102 304.63 57.4776 305.939 54.1349C307.249 50.7267 309.049 47.9083 311.341 45.6799C313.698 43.4514 316.448 41.78 319.591 40.6658C322.734 39.5516 326.204 38.9945 330.001 38.9945C332.686 38.9945 335.436 39.2894 338.251 39.8793C341.132 40.4036 343.653 41.1574 345.814 42.1405V54.7248C343.522 53.6761 341.263 52.824 339.037 52.1686C336.876 51.4476 334.65 51.0872 332.359 51.0872C328.234 51.0872 324.894 52.1358 322.341 54.2332C319.853 56.2651 318.609 59.6078 318.609 64.2613C318.609 69.177 319.722 72.8802 321.948 75.3709C324.174 77.8615 327.873 79.1068 333.046 79.1068C335.469 79.1068 337.793 78.6808 340.019 77.8287C342.311 76.9767 344.275 76.0918 345.912 75.1742V87.6602C343.62 88.84 341.231 89.7576 338.742 90.413C336.254 91.0684 333.373 91.3961 330.1 91.3961Z" fill="#191919"/>
<path d="M356.613 90.1181V24.5422H384.407C389.187 24.5422 393.312 25.1649 396.782 26.4102C400.318 27.59 403.068 29.5235 405.032 32.2107C406.996 34.8325 407.979 38.339 407.979 42.7304C407.979 45.6799 407.258 48.1049 405.818 50.0057C404.377 51.9064 402.642 53.4467 400.613 54.6265C398.583 55.7407 396.684 56.6255 394.916 57.281L393.148 53.84C396.749 53.9711 399.892 54.7248 402.577 56.1012C405.327 57.4121 407.455 59.28 408.961 61.7051C410.532 64.0647 411.318 66.9158 411.318 70.2585C411.318 74.8465 410.205 78.6152 407.979 81.5647C405.818 84.4486 402.904 86.6115 399.238 88.0534C395.571 89.4298 391.511 90.1181 387.059 90.1181H356.613ZM372.523 77.8287H385.88C387.517 77.8287 389.023 77.5993 390.398 77.1405C391.773 76.6162 392.886 75.7641 393.738 74.5843C394.589 73.339 395.014 71.7005 395.014 69.6686C395.014 68.1611 394.752 66.9158 394.229 65.9327C393.705 64.9495 392.985 64.1958 392.068 63.6714C391.217 63.0815 390.235 62.6555 389.122 62.3933C388.008 62.1312 386.83 62.0001 385.586 62.0001H372.523V77.8287ZM372.523 50.3006H385.291C386.404 50.3006 387.452 50.104 388.434 49.7108C389.416 49.2519 390.202 48.5637 390.791 47.6461C391.446 46.7285 391.773 45.516 391.773 44.0085C391.773 41.3212 391.053 39.486 389.613 38.5029C388.172 37.4542 386.404 36.9299 384.309 36.9299H372.523V50.3006Z" fill="#191919"/>
<path d="M422.013 90.1181V45.5815C422.93 44.795 424.567 43.9102 426.924 42.927C429.281 41.8784 431.966 40.9608 434.977 40.1742C438.055 39.3222 441.132 38.8961 444.209 38.8961C447.287 38.8961 449.709 39.1255 451.477 39.5843C453.245 40.0431 454.587 40.633 455.504 41.354V52.0703C454.391 51.8081 452.983 51.6115 451.281 51.4804C449.579 51.3493 447.811 51.2838 445.977 51.2838C444.144 51.2182 442.409 51.2182 440.772 51.2838C439.135 51.3493 437.76 51.4804 436.647 51.677V90.1181H422.013Z" fill="#191919"/>
<path d="M483.174 91.5928C480.162 91.5928 477.314 91.2978 474.63 90.7079C472.011 90.1836 469.686 89.2988 467.656 88.0534C465.692 86.7426 464.154 85.0057 463.04 82.8428C461.927 80.6143 461.371 77.8615 461.371 74.5843C461.371 71.5038 461.993 68.8166 463.237 66.5225C464.546 64.2285 466.511 62.4589 469.13 61.2136C471.749 59.9682 475.055 59.3456 479.049 59.3456C481.275 59.3456 483.436 59.575 485.531 60.0338C487.627 60.4926 489.493 61.1152 491.13 61.9018C492.832 62.6883 494.174 63.5403 495.156 64.4579L495.746 71.5366C494.436 70.7501 492.865 70.1274 491.031 69.6686C489.198 69.2098 487.234 68.9804 485.139 68.9804C481.93 68.9804 479.573 69.472 478.067 70.4551C476.627 71.3727 475.906 72.8475 475.906 74.8793C475.906 76.1246 476.267 77.2388 476.987 78.222C477.707 79.2051 478.656 79.9589 479.835 80.4832C481.079 81.0076 482.356 81.2697 483.665 81.2697C487.005 81.2697 489.329 81.0403 490.639 80.5815C492.014 80.1227 492.701 79.2051 492.701 77.8287V59.5422C492.701 56.5272 491.719 54.3643 489.755 53.0534C487.856 51.677 485.139 50.9888 481.603 50.9888C478.722 50.9888 475.808 51.5132 472.862 52.5619C469.981 53.545 467.624 54.7576 465.79 56.1995V43.222C467.493 42.1733 470.112 41.1902 473.648 40.2725C477.249 39.3549 481.275 38.8961 485.728 38.8961C487.299 38.8961 489.034 39.0272 490.933 39.2894C492.832 39.5516 494.731 40.0431 496.63 40.7641C498.528 41.4196 500.263 42.4027 501.835 43.7136C503.472 45.0244 504.781 46.6958 505.763 48.7276C506.746 50.7594 507.237 53.2828 507.237 56.2978L507.138 79.795C507.138 82.6134 506.189 84.9074 504.29 86.677C502.391 88.3812 499.641 89.6265 496.04 90.413C492.505 91.1995 488.216 91.5928 483.174 91.5928Z" fill="#191919"/>
<path d="M532.798 90.1181L516.102 40.3709H531.914L543.013 80.5815L538.397 80.7782L548.905 40.3709H559.709L570.021 79.5984H566.387L576.995 40.3709H592.512L576.012 90.1181H562.754L552.932 57.9692L555.387 58.2641L546.057 90.1181H532.798Z" fill="#191919"/>
<path d="M616 90.1181H601.464V21.5928H616V90.1181Z" fill="#191919"/>
<defs>
<clipPath id="clip0_84_31">
<rect width="140" height="113.186" fill="white"/>
</clipPath>
</defs>
</svg>
