<?xml version="1.0" encoding="UTF-8"?>
<svg version="1.1" xmlns="http://www.w3.org/2000/svg" width="646" height="250">
<path d="M0 0 C0.89876515 -0.00380567 1.79753031 -0.00761134 2.72353077 -0.01153234 C5.74492039 -0.02186526 8.76612274 -0.01793877 11.78752518 -0.01409245 C13.97172264 -0.01854391 16.1559185 -0.02385766 18.34011197 -0.02996117 C24.35009626 -0.04416239 30.36002888 -0.04580406 36.37002754 -0.04536426 C42.8487124 -0.04701058 49.32737585 -0.06007358 55.80604935 -0.07155704 C69.23794623 -0.09370209 82.66983058 -0.10181452 96.1017433 -0.10659205 C96.83175721 -0.10685322 97.56177112 -0.1071144 98.31390667 -0.10738349 C99.04538605 -0.10764376 99.77686544 -0.10790404 100.53051087 -0.1081722 C108.63660295 -0.11125452 116.74269176 -0.11775926 124.84878159 -0.12438488 C149.33164053 -0.14403211 173.81449595 -0.16043699 198.29736328 -0.16326141 C199.47196477 -0.16340251 199.47196477 -0.16340251 200.67029558 -0.16354645 C203.84373001 -0.16392493 207.01716444 -0.16428892 210.19059887 -0.16464943 C212.57912916 -0.16492115 214.96765944 -0.16519782 217.35618973 -0.16547489 C218.14545145 -0.16556291 218.93471317 -0.16565094 219.74789191 -0.16574163 C244.54769811 -0.16864716 269.34742638 -0.19074412 294.14720535 -0.22699833 C322.00751432 -0.26772559 349.86777018 -0.29141998 377.72811055 -0.29172093 C380.69901864 -0.29181775 383.66992672 -0.29198447 386.64083481 -0.29220104 C387.73810959 -0.29226721 387.73810959 -0.29226721 388.85755154 -0.29233472 C400.62882837 -0.29345451 412.4000271 -0.31086224 424.17127878 -0.33402036 C436.00238412 -0.35686442 447.83337501 -0.36066308 459.66449448 -0.34647106 C466.07381859 -0.33928906 472.48287216 -0.34021573 478.89216614 -0.36288166 C484.75968577 -0.38343307 490.62672621 -0.3809066 496.49424043 -0.36000682 C498.61670498 -0.35650465 500.73920384 -0.36145251 502.86162338 -0.37571125 C523.64262045 -0.50632182 523.64262045 -0.50632182 531.01243973 5.26006222 C533.26634598 7.57646847 533.26634598 7.57646847 534.57493973 9.82256222 C535.02997879 10.56635128 535.48501785 11.31014034 535.95384598 12.07646847 C537.84013736 15.96737948 538.13954568 19.39760454 538.15288162 23.69847775 C538.16144684 25.35538631 538.16144684 25.35538631 538.17018509 27.04576778 C538.17130295 28.25311581 538.17242081 29.46046383 538.17357254 30.70439816 C538.17853745 31.97960323 538.18350235 33.25480831 538.18861771 34.56865597 C538.20171897 38.06471202 538.20818237 41.56074888 538.21262836 45.05682564 C538.21556313 47.243249 538.21966873 49.42966717 538.22413254 51.61608791 C538.2378023 58.46328543 538.24747116 65.31047101 538.25133443 72.15768123 C538.25581221 80.04974728 538.27334916 87.94163988 538.30233502 95.83365321 C538.32398627 101.94166756 538.33404056 108.04963323 538.33537555 114.15768552 C538.33642124 117.80206525 538.34227831 121.44628182 538.36019516 125.09062099 C538.37981232 129.1599029 538.3753732 133.2288241 538.36888504 137.29814816 C538.38270721 139.0970248 538.38270721 139.0970248 538.39680862 140.93224239 C538.35649361 149.01011833 537.37928926 154.64017469 532.88743973 161.51006222 C526.73940494 167.39079115 519.94212222 168.85762236 511.65294266 168.76342678 C510.75041637 168.76924054 509.84789009 168.77505431 508.91801453 168.78104424 C505.90168882 168.79561165 502.88618101 168.78177401 499.8698616 168.76799679 C497.68235992 168.77260697 495.49486134 168.77896068 493.30736923 168.78690577 C487.30216039 168.80360586 481.29720577 168.79534943 475.291996 168.78296089 C468.81337638 168.77391561 462.33480065 168.78787756 455.85618973 168.79888058 C443.9002512 168.8164243 431.94439318 168.81418302 419.98844993 168.8032347 C408.94313381 168.79317 397.89784738 168.79054683 386.85252762 168.79532528 C386.1196886 168.79563082 385.38684959 168.79593636 384.63180333 168.79625116 C381.65692424 168.79749653 378.68204516 168.79877013 375.70716611 168.80009021 C347.80406189 168.81232451 319.90100926 168.80123508 291.997913 168.77970263 C267.21106094 168.76072039 242.42429107 168.7624189 217.63743973 168.78154659 C189.78517012 168.80296801 161.9329461 168.81145684 134.0806694 168.79909754 C131.11123022 168.79781468 128.14179103 168.79656332 125.17235184 168.79532528 C124.44120739 168.79500897 123.71006295 168.79469266 122.95676261 168.79436677 C111.9187499 168.78981807 100.88077014 168.79513575 89.84276199 168.80524349 C77.29125212 168.81667991 64.73984256 168.81343748 52.188344 168.79212052 C45.78321766 168.78160118 39.37825823 168.77750358 32.97313309 168.79071712 C27.11076448 168.80262817 21.24871766 168.79609925 15.38637829 168.77480692 C13.26470095 168.77033546 11.14299648 168.77261926 9.02133656 168.78231007 C6.13781662 168.79447131 3.25539925 168.78200105 0.3719368 168.76342678 C-0.8641942 168.77747378 -0.8641942 168.77747378 -2.12529755 168.79180455 C-8.7396631 168.70662692 -14.88793033 167.08026947 -19.87873411 162.53937224 C-24.54424903 157.54805264 -26.23140248 152.34373224 -26.25498581 145.51193905 C-26.26351578 144.38920086 -26.27204575 143.26646267 -26.2808342 142.10970211 C-26.27947464 140.28377026 -26.27947464 140.28377026 -26.27808762 138.42095089 C-26.28480484 137.12755291 -26.29152206 135.83415493 -26.29844284 134.50156307 C-26.31606028 130.96421774 -26.32079643 127.42696927 -26.32207441 123.8895843 C-26.32349908 121.67599823 -26.32777466 119.46243654 -26.33306885 117.24885654 C-26.35155562 109.51616645 -26.35974123 101.78354516 -26.35816574 94.0508337 C-26.35696497 86.85941076 -26.37805801 79.66828824 -26.40965307 72.47694129 C-26.43586414 66.28903081 -26.44653101 60.10121817 -26.44525492 53.91325265 C-26.44474667 50.22355912 -26.45035348 46.53413271 -26.47161102 42.84449482 C-26.49469718 38.72524236 -26.48544312 34.60665675 -26.47340012 30.48735714 C-26.48463913 29.27614193 -26.49587814 28.06492672 -26.50745773 26.81700802 C-26.45021639 19.09839389 -25.66709289 12.27169055 -20.26680183 6.38399696 C-14.24916794 0.70396639 -7.96565903 -0.03663293 0 0 Z " fill="#010100" transform="translate(66.9875602722168,40.7399377822876)"/>
<path d="M0 0 C0.89876515 -0.00380567 1.79753031 -0.00761134 2.72353077 -0.01153234 C5.74492039 -0.02186526 8.76612274 -0.01793877 11.78752518 -0.01409245 C13.97172264 -0.01854391 16.1559185 -0.02385766 18.34011197 -0.02996117 C24.35009626 -0.04416239 30.36002888 -0.04580406 36.37002754 -0.04536426 C42.8487124 -0.04701058 49.32737585 -0.06007358 55.80604935 -0.07155704 C69.23794623 -0.09370209 82.66983058 -0.10181452 96.1017433 -0.10659205 C96.83175721 -0.10685322 97.56177112 -0.1071144 98.31390667 -0.10738349 C99.04538605 -0.10764376 99.77686544 -0.10790404 100.53051087 -0.1081722 C108.63660295 -0.11125452 116.74269176 -0.11775926 124.84878159 -0.12438488 C149.33164053 -0.14403211 173.81449595 -0.16043699 198.29736328 -0.16326141 C199.47196477 -0.16340251 199.47196477 -0.16340251 200.67029558 -0.16354645 C203.84373001 -0.16392493 207.01716444 -0.16428892 210.19059887 -0.16464943 C212.57912916 -0.16492115 214.96765944 -0.16519782 217.35618973 -0.16547489 C218.14545145 -0.16556291 218.93471317 -0.16565094 219.74789191 -0.16574163 C244.54769811 -0.16864716 269.34742638 -0.19074412 294.14720535 -0.22699833 C322.00751432 -0.26772559 349.86777018 -0.29141998 377.72811055 -0.29172093 C380.69901864 -0.29181775 383.66992672 -0.29198447 386.64083481 -0.29220104 C387.73810959 -0.29226721 387.73810959 -0.29226721 388.85755154 -0.29233472 C400.62882837 -0.29345451 412.4000271 -0.31086224 424.17127878 -0.33402036 C436.00238412 -0.35686442 447.83337501 -0.36066308 459.66449448 -0.34647106 C466.07381859 -0.33928906 472.48287216 -0.34021573 478.89216614 -0.36288166 C484.75968577 -0.38343307 490.62672621 -0.3809066 496.49424043 -0.36000682 C498.61670498 -0.35650465 500.73920384 -0.36145251 502.86162338 -0.37571125 C523.64262045 -0.50632182 523.64262045 -0.50632182 531.01243973 5.26006222 C533.26634598 7.57646847 533.26634598 7.57646847 534.57493973 9.82256222 C535.02997879 10.56635128 535.48501785 11.31014034 535.95384598 12.07646847 C537.84013736 15.96737948 538.13954568 19.39760454 538.15288162 23.69847775 C538.16144684 25.35538631 538.16144684 25.35538631 538.17018509 27.04576778 C538.17130295 28.25311581 538.17242081 29.46046383 538.17357254 30.70439816 C538.17853745 31.97960323 538.18350235 33.25480831 538.18861771 34.56865597 C538.20171897 38.06471202 538.20818237 41.56074888 538.21262836 45.05682564 C538.21556313 47.243249 538.21966873 49.42966717 538.22413254 51.61608791 C538.2378023 58.46328543 538.24747116 65.31047101 538.25133443 72.15768123 C538.25581221 80.04974728 538.27334916 87.94163988 538.30233502 95.83365321 C538.32398627 101.94166756 538.33404056 108.04963323 538.33537555 114.15768552 C538.33642124 117.80206525 538.34227831 121.44628182 538.36019516 125.09062099 C538.37981232 129.1599029 538.3753732 133.2288241 538.36888504 137.29814816 C538.38270721 139.0970248 538.38270721 139.0970248 538.39680862 140.93224239 C538.35649361 149.01011833 537.37928926 154.64017469 532.88743973 161.51006222 C526.73940494 167.39079115 519.94212222 168.85762236 511.65294266 168.76342678 C510.75041637 168.76924054 509.84789009 168.77505431 508.91801453 168.78104424 C505.90168882 168.79561165 502.88618101 168.78177401 499.8698616 168.76799679 C497.68235992 168.77260697 495.49486134 168.77896068 493.30736923 168.78690577 C487.30216039 168.80360586 481.29720577 168.79534943 475.291996 168.78296089 C468.81337638 168.77391561 462.33480065 168.78787756 455.85618973 168.79888058 C443.9002512 168.8164243 431.94439318 168.81418302 419.98844993 168.8032347 C408.94313381 168.79317 397.89784738 168.79054683 386.85252762 168.79532528 C386.1196886 168.79563082 385.38684959 168.79593636 384.63180333 168.79625116 C381.65692424 168.79749653 378.68204516 168.79877013 375.70716611 168.80009021 C347.80406189 168.81232451 319.90100926 168.80123508 291.997913 168.77970263 C267.21106094 168.76072039 242.42429107 168.7624189 217.63743973 168.78154659 C189.78517012 168.80296801 161.9329461 168.81145684 134.0806694 168.79909754 C131.11123022 168.79781468 128.14179103 168.79656332 125.17235184 168.79532528 C124.44120739 168.79500897 123.71006295 168.79469266 122.95676261 168.79436677 C111.9187499 168.78981807 100.88077014 168.79513575 89.84276199 168.80524349 C77.29125212 168.81667991 64.73984256 168.81343748 52.188344 168.79212052 C45.78321766 168.78160118 39.37825823 168.77750358 32.97313309 168.79071712 C27.11076448 168.80262817 21.24871766 168.79609925 15.38637829 168.77480692 C13.26470095 168.77033546 11.14299648 168.77261926 9.02133656 168.78231007 C6.13781662 168.79447131 3.25539925 168.78200105 0.3719368 168.76342678 C-0.8641942 168.77747378 -0.8641942 168.77747378 -2.12529755 168.79180455 C-8.7396631 168.70662692 -14.88793033 167.08026947 -19.87873411 162.53937224 C-24.54424903 157.54805264 -26.23140248 152.34373224 -26.25498581 145.51193905 C-26.26351578 144.38920086 -26.27204575 143.26646267 -26.2808342 142.10970211 C-26.27947464 140.28377026 -26.27947464 140.28377026 -26.27808762 138.42095089 C-26.28480484 137.12755291 -26.29152206 135.83415493 -26.29844284 134.50156307 C-26.31606028 130.96421774 -26.32079643 127.42696927 -26.32207441 123.8895843 C-26.32349908 121.67599823 -26.32777466 119.46243654 -26.33306885 117.24885654 C-26.35155562 109.51616645 -26.35974123 101.78354516 -26.35816574 94.0508337 C-26.35696497 86.85941076 -26.37805801 79.66828824 -26.40965307 72.47694129 C-26.43586414 66.28903081 -26.44653101 60.10121817 -26.44525492 53.91325265 C-26.44474667 50.22355912 -26.45035348 46.53413271 -26.47161102 42.84449482 C-26.49469718 38.72524236 -26.48544312 34.60665675 -26.47340012 30.48735714 C-26.48463913 29.27614193 -26.49587814 28.06492672 -26.50745773 26.81700802 C-26.45021639 19.09839389 -25.66709289 12.27169055 -20.26680183 6.38399696 C-14.24916794 0.70396639 -7.96565903 -0.03663293 0 0 Z M-19.9481163 12.76067257 C-23.01939641 18.2843778 -22.67865749 24.08109902 -22.61866379 30.25029659 C-22.62581909 31.53583935 -22.6329744 32.8213821 -22.64034653 34.1458807 C-22.65877513 37.65229667 -22.64597719 41.15794692 -22.62625623 44.66433048 C-22.609797 48.34545979 -22.61869269 52.02654336 -22.62377548 55.70769405 C-22.62828838 61.88787129 -22.6124769 68.06774508 -22.5844841 74.24785519 C-22.55243559 81.37803569 -22.55245042 88.5076691 -22.56969887 95.63788843 C-22.58560022 102.5161101 -22.57880732 109.39413251 -22.56176186 116.27234554 C-22.55491554 119.19084683 -22.55589873 122.10918723 -22.56330681 125.02768612 C-22.57243873 129.1087055 -22.54835755 133.18888993 -22.52100754 137.26982784 C-22.52753342 138.4721455 -22.5340593 139.67446316 -22.54078293 140.91321468 C-22.46211514 147.82835294 -21.72436722 152.38697393 -17.98756027 158.26006222 C-15.6091345 160.66412606 -15.6091345 160.66412606 -12.98756027 162.26006222 C-12.19034526 162.7973764 -12.19034526 162.7973764 -11.37702489 163.34554541 C-7.73928051 164.73781477 -4.09773644 164.53622261 -0.2561264 164.51733112 C1.08692602 164.52259024 1.08692602 164.52259024 2.45711082 164.52795559 C5.47897161 164.53731269 8.5006415 164.53233517 11.52251053 164.52748775 C13.70228221 164.53122185 15.88205255 164.5358224 18.06182075 164.5412184 C24.06878623 164.5534937 30.07569622 164.55318261 36.0826714 164.55082965 C42.55453434 164.55042262 49.02637921 164.56144973 55.4982338 164.57094479 C68.18449328 164.58801669 80.87073692 164.59308139 93.55700669 164.59416954 C103.86624784 164.59508803 114.17548295 164.5992016 124.48472214 164.60557079 C127.45043619 164.60736584 130.41615025 164.60914547 133.38186431 164.61092055 C134.11911804 164.61136264 134.85637176 164.61180474 135.61596651 164.61226023 C156.35916824 164.62457201 177.10236788 164.63246103 197.84557343 164.63157368 C198.62794069 164.63154252 199.41030796 164.63151136 200.21638332 164.63147926 C204.18189089 164.63131304 208.14739845 164.63111496 212.11290601 164.63090985 C213.29428523 164.63085001 213.29428523 164.63085001 214.49953069 164.63078897 C216.0922229 164.63070809 217.6849151 164.6306245 219.2776073 164.63053818 C244.05691736 164.62931269 268.83617268 164.64432411 293.61546707 164.67168331 C321.4449773 164.70239752 349.27445157 164.71961618 377.10397983 164.71775687 C380.0709513 164.7176076 383.03792278 164.71751019 386.00489426 164.71744823 C386.73545548 164.71742493 387.46601669 164.71740162 388.21871613 164.7173776 C399.98118565 164.71731603 411.74360769 164.73009405 423.50606309 164.74731276 C435.32616568 164.76425807 447.1461929 164.76590831 458.96630105 164.75309412 C465.37127551 164.74654838 471.77607775 164.74650526 478.181036 164.76380062 C484.04230701 164.77946533 489.9032683 164.77673523 495.76453146 164.75923236 C497.887018 164.75614788 500.00952727 164.75984895 502.13198701 164.77095251 C505.01424835 164.78503443 507.89541741 164.77451776 510.7776413 164.75784016 C511.60418054 164.76777652 512.43071977 164.77771288 513.28230566 164.78795034 C519.69318922 164.70937532 525.2034387 163.03327979 529.85228348 158.44365597 C530.21451004 157.86744503 530.5767366 157.29123409 530.94993973 156.69756222 C531.52034988 155.82937862 531.52034988 155.82937862 532.10228348 154.94365597 C533.9408455 151.54271077 534.14275244 148.72998756 534.15961075 144.94190121 C534.16676605 143.83867016 534.17392136 142.73543911 534.18129349 141.59877682 C534.18398239 140.38783352 534.1866713 139.17689022 534.18944168 137.92925167 C534.19601288 136.65419262 534.20258408 135.37913357 534.2093544 134.06543636 C534.23037935 129.8347515 534.24075682 125.60406634 534.25072098 121.37334347 C534.25476943 119.91520004 534.25888637 118.45705681 534.26307106 116.99891376 C534.28212103 110.14637676 534.29635123 103.2938505 534.30468303 96.44129211 C534.3144485 88.54067483 534.34075054 80.64033824 534.38118392 72.73981982 C534.41138755 66.6275806 534.426156 60.51542163 534.42946404 54.40310925 C534.43181014 50.75530233 534.44071224 47.10779532 534.46592522 43.4600687 C534.4936311 39.38581598 534.4893619 35.31218649 534.48241043 31.23784542 C534.49522049 30.03702328 534.50803055 28.83620113 534.52122879 27.59899044 C534.47417434 20.02745445 533.75961538 14.05558853 528.19603348 8.42021847 C527.61982254 8.05799191 527.0436116 7.69576534 526.44993973 7.32256222 C525.87115067 6.94228878 525.2923616 6.56201534 524.69603348 6.17021847 C520.38806438 3.84131638 516.15484606 4.11626169 511.40405369 4.12304783 C510.06273203 4.11907009 510.06273203 4.11907009 508.69431296 4.11501199 C505.67040604 4.10729662 502.64653957 4.10675896 499.62262344 4.10616207 C497.44371563 4.10214893 495.26480856 4.09771096 493.08590239 4.09288251 C487.07669335 4.08089475 481.06749234 4.07526348 475.05827367 4.07070136 C468.58571492 4.06475367 462.11316581 4.05314181 455.64061356 4.04241085 C440.7385989 4.01873327 425.83658042 4.00447738 410.9345526 3.99218143 C405.77950406 3.98792745 400.62445589 3.98336175 395.4694078 3.97859812 C368.06675423 3.95333946 340.66410007 3.93128869 313.26143742 3.91886997 C306.91175522 3.91594859 300.56207305 3.91298108 294.2123909 3.90996456 C293.02907532 3.9094082 293.02907532 3.9094082 291.82185437 3.90884059 C266.24033088 3.89668308 240.65887615 3.86573584 215.07738496 3.82404304 C188.78395195 3.78126798 162.49055526 3.7546306 136.19708651 3.74939526 C132.48436554 3.7486548 128.77164463 3.74774411 125.05892372 3.74673748 C123.96286214 3.74645156 123.96286214 3.74645156 122.84465791 3.74615986 C111.07932523 3.74264462 99.31407862 3.72233914 87.54877757 3.69594084 C75.72518778 3.66981155 63.90170618 3.66247706 52.0780916 3.67304213 C45.67105713 3.67824089 39.26429666 3.67526259 32.85730171 3.65057659 C26.99409141 3.62817384 21.13135335 3.62875437 15.26813527 3.64778046 C13.14494082 3.65059305 11.02171495 3.64491258 8.89857123 3.62996753 C6.01514749 3.6109088 3.13341593 3.62261868 0.25003147 3.64202976 C-0.57679362 3.62918054 -1.4036187 3.61633132 -2.25549909 3.60309273 C-9.81101407 3.71506516 -15.32168402 6.7885774 -19.9481163 12.76067257 Z " fill="#979797" transform="translate(66.9875602722168,40.7399377822876)"/>
<path d="M0 0 C3.90055273 1.76798421 7.48638151 3.99992857 11.125 6.25 C13.26111478 7.53485882 15.39784613 8.81869306 17.53515625 10.1015625 C19.14801514 11.07851074 19.14801514 11.07851074 20.79345703 12.07519531 C25.67200925 15.00366385 30.61381374 17.81722215 35.5625 20.625 C37.23055464 21.5753701 38.8985284 22.52588217 40.56640625 23.4765625 C41.69199951 24.11706543 41.69199951 24.11706543 42.84033203 24.77050781 C45.89570302 26.50992091 48.94793558 28.2547927 52 30 C50.33764449 34.32920662 47.04744177 37.22573553 43.82202148 40.42089844 C43.18935364 41.05546463 42.55668579 41.69003082 41.90484619 42.34382629 C39.81511492 44.43725858 37.71827735 46.52341051 35.62109375 48.609375 C34.16866732 50.06060945 32.71661021 51.51221362 31.26490784 52.96417236 C28.22404164 56.00347502 25.1798457 59.03938895 22.13305664 62.07275391 C18.21797511 65.97080802 14.3095467 69.87545065 10.40334988 73.78240585 C7.40720496 76.77827961 4.40846676 79.77154582 1.40883064 82.76392365 C-0.03394813 84.20350995 -1.47611296 85.64371183 -2.91766548 87.08452606 C-4.92640802 89.09111329 -6.93840057 91.09438032 -8.95141602 93.09667969 C-9.55247665 93.69819351 -10.15353729 94.29970734 -10.77281189 94.91944885 C-14.88552386 99 -14.88552386 99 -16 99 C-16.09272133 87.36915029 -16.16377603 75.73838866 -16.20724869 64.10724449 C-16.22811448 58.70629182 -16.25641407 53.3055922 -16.30175781 47.90478516 C-16.34525098 42.69171286 -16.36914469 37.47888382 -16.37950897 32.26564407 C-16.38689407 30.27772823 -16.40131549 28.28982555 -16.42292023 26.3020134 C-16.45200018 23.51534102 -16.45595406 20.72967103 -16.45410156 17.94287109 C-16.46848267 17.12287628 -16.48286377 16.30288147 -16.49768066 15.45803833 C-16.45970088 10.17050121 -15.48144378 7.2087905 -12 3 C-8.24094386 -0.04788336 -4.7239056 -0.9311725 0 0 Z " fill="#4285F2" transform="translate(99,71)"/>
<path d="M0 0 C2.20597272 1.08680077 4.41007278 2.17715156 6.61328125 3.26953125 C7.53711609 3.72398621 7.53711609 3.72398621 8.47961426 4.18762207 C24.56203459 12.17852503 24.56203459 12.17852503 28 18 C28.74390318 22.07688115 28.41140947 25.86862397 27 29.75 C21.5848741 35.84201664 12.78867075 39.5058522 5.8125 43.5625 C4.75804687 44.17673828 3.70359375 44.79097656 2.6171875 45.42382812 C-4.90922383 49.80143472 -12.45440927 54.14522588 -20.0324707 58.43286133 C-24.86403896 61.17440785 -29.64670496 63.98134507 -34.3984375 66.859375 C-36.01588867 67.83003906 -36.01588867 67.83003906 -37.66601562 68.8203125 C-39.75831245 70.07849221 -41.84338174 71.3487941 -43.91992188 72.6328125 C-52.91715674 78.01775199 -52.91715674 78.01775199 -59 77 C-62.70390021 74.97333762 -64.65363011 73.51955484 -67 70 C-66.50168809 65.27207283 -63.05582377 62.65850269 -59.82788086 59.48730469 C-59.18399918 58.84298492 -58.54011749 58.19866516 -57.87672424 57.53482056 C-55.74646442 55.40665093 -53.60577495 53.2893045 -51.46484375 51.171875 C-49.98588406 49.69851042 -48.50758529 48.22448214 -47.02992249 46.74981689 C-43.13861441 42.86996421 -39.23838132 38.99920469 -35.33624268 35.13024902 C-31.35611852 31.18081054 -27.38447135 27.22286791 -23.41210938 23.265625 C-15.61636182 15.50205388 -7.81116235 7.74805948 0 0 Z " fill="#E74335" transform="translate(151,102)"/>
<path d="M0 0 C3.90055273 1.76798421 7.48638151 3.99992857 11.125 6.25 C13.26111478 7.53485882 15.39784613 8.81869306 17.53515625 10.1015625 C19.14801514 11.07851074 19.14801514 11.07851074 20.79345703 12.07519531 C25.67200925 15.00366385 30.61381374 17.81722215 35.5625 20.625 C37.23055464 21.5753701 38.8985284 22.52588217 40.56640625 23.4765625 C41.69199951 24.11706543 41.69199951 24.11706543 42.84033203 24.77050781 C45.89570302 26.50992091 48.94793558 28.2547927 52 30 C50.4608199 33.66752005 48.24514548 35.98580573 45.4296875 38.765625 C44.53378906 39.65507813 43.63789063 40.54453125 42.71484375 41.4609375 C41.77769531 42.38132813 40.84054688 43.30171875 39.875 44.25 C38.92011363 45.19484856 37.96568141 46.14015633 37.01171875 47.0859375 C34.67890913 49.39518338 32.34155914 51.69963203 30 54 C24.47170754 49.39544882 19.36161554 44.49338291 14.29296875 39.390625 C13.48636307 38.58260437 12.67975739 37.77458374 11.84870911 36.94207764 C9.29259794 34.38040704 6.7399987 31.81526963 4.1875 29.25 C2.45400814 27.51148729 0.72028645 25.77320371 -1.01367188 24.03515625 C-4.81188178 20.2271471 -8.60788708 16.4169563 -12.40193176 12.60479736 C-13.59988507 11.40179973 -14.79952188 10.20047812 -16 9 C-12.07842961 2.46404935 -7.99695241 -1.57635287 0 0 Z " fill="#33A652" transform="translate(99,71)"/>
<path d="M0 0 C2.5625 1.5 2.5625 1.5 4 3 C4.33 2.34 4.66 1.68 5 1 C7.64 1 10.28 1 13 1 C13.09943082 6.26524445 13.17173199 11.52993343 13.21972656 16.79589844 C13.23974959 18.58440684 13.26697654 20.37285054 13.30175781 22.16113281 C13.35068955 24.74300162 13.37306165 27.3239995 13.390625 29.90625 C13.41127014 30.69616333 13.43191528 31.48607666 13.45318604 32.29992676 C13.45542505 37.93359201 12.24559424 42.3334873 9 47 C3.96701898 51.00584204 -0.25550318 52.4263148 -6.58203125 52.34375 C-10.7767878 51.74740335 -13.89205725 49.82341278 -17 47 C-19 43.6875 -19 43.6875 -20 41 C-17.69 40.01 -15.38 39.02 -13 38 C-12.525625 38.825 -12.05125 39.65 -11.5625 40.5 C-8.71641938 43.27666402 -8.20728775 43.38224252 -4.4375 43.4375 C-0.95772487 43.33774253 -0.0357225 43.023815 3 41 C3.57748803 39.03638136 3.57748803 39.03638136 3.6875 36.875 C3.790625 35.59625 3.89375 34.3175 4 33 C3.34 33.495 2.68 33.99 2 34.5 C-1.80635031 36.40317516 -4.88164362 36.90295514 -9 36 C-13.50052463 33.87738627 -16.98718654 31.28903531 -20.0625 27.375 C-21.78530908 21.1728873 -22.42987906 14.00038823 -19.5 8.0625 C-14.25322032 1.63519489 -8.4115803 -1.58646701 0 0 Z " fill="#F2F2F2" transform="translate(368,132)"/>
<path d="M0 0 C24.24746129 11.64586097 24.24746129 11.64586097 28 18 C28.74390318 22.07688115 28.41140947 25.86862397 27 29.75 C24.8139948 32.20925585 22.49882865 33.81830587 19.65625 35.45703125 C17.48720033 36.71699392 15.38721891 38.02661383 13.28125 39.38671875 C11.93770528 40.23730351 10.59395348 41.08756126 9.25 41.9375 C8.59999023 42.36385742 7.94998047 42.79021484 7.28027344 43.22949219 C5.390625 44.40234375 5.390625 44.40234375 2 46 C-1.7216679 44.80517371 -4.06652729 42.16338902 -6.765625 39.4296875 C-7.65507812 38.53378906 -8.54453125 37.63789063 -9.4609375 36.71484375 C-10.38132813 35.77769531 -11.30171875 34.84054688 -12.25 33.875 C-13.19484856 32.92011363 -14.14015633 31.96568141 -15.0859375 31.01171875 C-17.39518338 28.67890913 -19.69963203 26.34155914 -22 24 C-20.4608199 20.33247995 -18.24514548 18.01419427 -15.4296875 15.234375 C-14.08583984 13.90019531 -14.08583984 13.90019531 -12.71484375 12.5390625 C-11.77769531 11.61867188 -10.84054688 10.69828125 -9.875 9.75 C-8.92011363 8.80515144 -7.96568141 7.85984367 -7.01171875 6.9140625 C-4.67890913 4.60481662 -2.34155914 2.30036797 0 0 Z " fill="#F8BA04" transform="translate(151,102)"/>
<path d="M0 0 C2.37640192 1.43397719 4.58053608 2.90954957 6.73828125 4.65234375 C5.76103384 7.09546228 5.01997415 8.44521662 2.87890625 10.01953125 C0.73828125 10.65234375 0.73828125 10.65234375 -1.33984375 9.97265625 C-2.41492188 9.38097656 -2.41492188 9.38097656 -3.51171875 8.77734375 C-7.95131778 6.65184944 -11.37928824 5.59013558 -16.26171875 6.65234375 C-21.20910946 8.50351974 -25.076091 10.68864786 -27.76171875 15.33984375 C-28.25671875 16.43296875 -28.75171875 17.52609375 -29.26171875 18.65234375 C-29.59171875 19.31234375 -29.92171875 19.97234375 -30.26171875 20.65234375 C-30.91435179 26.70175005 -30.35962399 32.33833401 -27.26171875 37.65234375 C-23.4527575 42.07927807 -18.87031096 44.28823355 -13.09375 44.87109375 C-6.8945207 45.120309 -2.90690917 43.78319159 1.98828125 39.83984375 C4.06195169 37.24775569 4.759057 34.80046381 5.73828125 31.65234375 C4.52269531 31.66394531 3.30710938 31.67554688 2.0546875 31.6875 C0.47005361 31.69687653 -1.11458193 31.70597688 -2.69921875 31.71484375 C-3.90288086 31.72741211 -3.90288086 31.72741211 -5.13085938 31.74023438 C-7.17467096 31.74885805 -9.21855777 31.70462525 -11.26171875 31.65234375 C-12.26171875 30.65234375 -12.26171875 30.65234375 -12.38671875 27.15234375 C-12.26171875 23.65234375 -12.26171875 23.65234375 -11.26171875 22.65234375 C-9.40802264 22.5649673 -7.55104334 22.54536222 -5.6953125 22.5546875 C-4.57060547 22.55791016 -3.44589844 22.56113281 -2.28710938 22.56445312 C-1.10310547 22.57283203 0.08089844 22.58121094 1.30078125 22.58984375 C2.48865234 22.59435547 3.67652344 22.59886719 4.90039062 22.60351562 C7.84640351 22.615347 10.79231806 22.63183088 13.73828125 22.65234375 C14.49065146 32.32169419 14.02707384 39.01273652 7.73828125 46.65234375 C2.31242353 52.2209872 -4.09602491 53.83297319 -11.63671875 54.15234375 C-19.98618329 53.93007791 -26.0071453 50.97350267 -32.13671875 45.40234375 C-38.68905796 38.15294718 -40.05507191 31.00851442 -39.7734375 21.31640625 C-38.67307122 13.43744771 -34.23113124 7.91488306 -28.265625 2.90625 C-19.89235093 -2.33316711 -9.24398548 -3.81937125 0 0 Z " fill="#F3F3F3" transform="translate(252.26171875,114.34765625)"/>
<path d="M0 0 C25 0 25 0 31 4 C35.18958311 8.75574299 36.3046905 11.46420176 36.21484375 17.68359375 C35.78593078 22.30805537 33.93444402 25.11473724 30.625 28.25 C25.50404008 31.66397328 21.25814511 32.27485973 15.1875 32.125 C11.6296875 32.063125 11.6296875 32.063125 8 32 C8 38.6 8 45.2 8 52 C5.36 52 2.72 52 0 52 C0 34.84 0 17.68 0 0 Z " fill="#FCFCFC" transform="translate(447,115)"/>
<path d="M0 0 C5.124505 2.26138194 8.16136131 5.44361859 10.8125 10.34765625 C12.62270278 15.7782646 12.51347747 20.44509397 10.125 25.59765625 C7.47182948 30.37898829 3.79932296 33.20395822 -1.1875 35.34765625 C-7.98423348 36.32675019 -12.70443808 35.43307493 -18.1875 31.34765625 C-22.52586525 26.93041163 -24.35362092 23.7918026 -24.5 17.59765625 C-24.44946419 12.31666416 -23.88158863 9.34126558 -20.1875 5.34765625 C-14.00878861 -0.213184 -8.18613068 -2.44122111 0 0 Z " fill="#F3F3F3" transform="translate(293.1875,132.65234375)"/>
<path d="M0 0 C4.60326819 2.51876939 7.42075736 5.47488603 10.3125 9.8125 C12.07136244 15.8694277 11.23156273 20.88320615 8.69140625 26.57421875 C5.97211629 30.98825033 2.20806831 33.1806439 -2.6875 34.8125 C-8.37735711 35.3760668 -12.85658403 35.14046433 -17.6875 31.8125 C-22.51589158 27.01811118 -24.81746047 23.44610963 -25 16.5 C-24.93973253 11.41744353 -24.18555083 8.67876671 -20.6875 4.8125 C-14.35969355 -1.25095945 -8.33931798 -2.68554308 0 0 Z " fill="#F3F3F3" transform="translate(332.6875,133.1875)"/>
<path d="M0 0 C3.87850945 2.67801843 6.13291589 5.33624767 7.625 9.8125 C7.70739169 11.65860532 7.73243359 13.50755164 7.72265625 15.35546875 C7.71943359 16.42861328 7.71621094 17.50175781 7.71289062 18.60742188 C7.70451172 19.72697266 7.69613281 20.84652344 7.6875 22 C7.68298828 23.13115234 7.67847656 24.26230469 7.67382812 25.42773438 C7.66203498 28.22270927 7.6455765 31.0175782 7.625 33.8125 C4.985 33.8125 2.345 33.8125 -0.375 33.8125 C-0.705 33.1525 -1.035 32.4925 -1.375 31.8125 C-2.220625 32.3075 -3.06625 32.8025 -3.9375 33.3125 C-7.85583062 35.022317 -10.14313363 35.3414833 -14.375 34.8125 C-18.71926379 32.55682457 -21.43291513 30.34403136 -23.375 25.8125 C-23.79546396 22.44878832 -23.58053341 20.35202521 -22.375 17.1875 C-19.15051694 13.35842637 -15.17873936 11.17169793 -10.1796875 10.53125 C-7.00083246 10.48432963 -4.39494326 10.80585225 -1.375 11.8125 C-1.86205712 9.74847032 -1.86205712 9.74847032 -3.375 7.8125 C-7.29144812 6.86965138 -10.53923878 6.43162596 -14.375 7.8125 C-14.375 8.4725 -14.375 9.1325 -14.375 9.8125 C-17.13776177 9.28981534 -19.7010876 8.70380413 -22.375 7.8125 C-21.45125522 4.11752087 -20.43697106 2.86026936 -17.375 0.5 C-11.74959949 -2.38903659 -5.8452888 -2.05667569 0 0 Z " fill="#F5F5F5" transform="translate(522.375,133.1875)"/>
<path d="M0 0 C4.37406801 2.2282988 7.30228616 4.90347157 10 9 C10.37720935 10.65728754 10.71739982 12.32398508 11 14 C7.54418685 15.50585523 4.08495247 17.00368289 0.625 18.5 C-0.35984375 18.92925781 -1.3446875 19.35851562 -2.359375 19.80078125 C-3.77089844 20.40986328 -3.77089844 20.40986328 -5.2109375 21.03125 C-6.08024902 21.40830078 -6.94956055 21.78535156 -7.84521484 22.17382812 C-10 23 -10 23 -12 23 C-10.83451625 25.07487687 -10.83451625 25.07487687 -9 27 C-6.60091217 27.59459504 -6.60091217 27.59459504 -4 27.4375 C-3.13375 27.43621094 -2.2675 27.43492187 -1.375 27.43359375 C1.37563053 26.93142272 2.2724894 26.14234045 4 24 C8.75 25.875 8.75 25.875 11 27 C9.49364535 31.21779303 6.75987578 32.7747674 3 35 C-1.77218558 36.59072853 -6.48142009 37.02510621 -11.2265625 35.09375 C-16.6826843 31.90590356 -19.9751412 28.07457639 -22 22 C-22.43553595 16.44691658 -21.79993328 11.81939735 -19 7 C-13.47786473 0.96873169 -8.12765575 -1.00203975 0 0 Z " fill="#F3F3F3" transform="translate(419,132)"/>
<path d="M0 0 C2.64 0 5.28 0 8 0 C11.21169637 6.92357497 14.23729682 13.88488175 17 21 C17.31453125 20.23816406 17.6290625 19.47632813 17.953125 18.69140625 C20.55214956 12.42086807 23.21451987 6.18995585 26 0 C28.97 0 31.94 0 35 0 C32.52610287 8.08841544 29.12149411 15.69057024 25.625 23.375 C25.05428721 24.63784001 24.48397247 25.90085998 23.9140625 27.1640625 C22.28177022 30.77865057 20.64162508 34.3896401 19 38 C18.24348145 39.66530762 18.24348145 39.66530762 17.47167969 41.36425781 C16.31506653 43.90978486 15.15787221 46.45504547 14 49 C11.36 49 8.72 49 6 49 C7.39252745 44.6446482 8.77213594 40.37890516 10.75 36.25 C12.44446937 31.84437963 11.59544841 29.49218001 9.87670898 25.18505859 C9.42110596 24.18297363 8.96550293 23.18088867 8.49609375 22.1484375 C7.75649414 20.50101563 7.75649414 20.50101563 7.00195312 18.8203125 C5.95537553 16.51548993 4.90849847 14.21080332 3.86132812 11.90625 C3.36955078 10.81054688 2.87777344 9.71484375 2.37109375 8.5859375 C1.91661865 7.5861084 1.46214355 6.5862793 0.99389648 5.55615234 C0 3 0 3 0 0 Z " fill="#F6F6F6" transform="translate(531,133)"/>
<path d="M0 0 C4.08893815 1.85860825 5.61924134 3.39316588 8 7.1875 C9.25905952 11.98766444 8.97255919 15.44726295 7 20 C3.22231409 23.77768591 0.44497006 25.15541283 -4.8125 25.25 C-9.04548293 25.19510541 -11.71595412 24.88597972 -15 22 C-18.18659709 18.26398962 -18.46615074 14.88577152 -18.28515625 10.1484375 C-17.73744042 6.02181139 -15.98970074 3.86973701 -12.9375 1.1875 C-8.58612578 -0.57156617 -4.62722648 -0.65255758 0 0 Z " fill="#ECECEC" transform="translate(344,71)"/>
<path d="M0 0 C2.64 0 5.28 0 8 0 C8 17.49 8 34.98 8 53 C5.36 53 2.72 53 0 53 C0 35.51 0 18.02 0 0 Z " fill="#FBFBFB" transform="translate(487,114)"/>
<path d="M0 0 C2.64 0 5.28 0 8 0 C8 17.49 8 34.98 8 53 C5.36 53 2.72 53 0 53 C0 35.51 0 18.02 0 0 Z " fill="#F3F3F3" transform="translate(386,114)"/>
<path d="M0 0 C14.19642857 -0.66964286 14.19642857 -0.66964286 17.875 2.0625 C20 5 20 5 20.6875 8.5 C19.8403214 12.81290923 18.3720891 14.27021358 15 17 C10.73840618 19.13079691 4.59236298 18.04502317 0 18 C0 12.06 0 6.12 0 0 Z " fill="#0B0B0B" transform="translate(455,122)"/>
<path d="M0 0 C2.16015625 0.50390625 2.16015625 0.50390625 5.22265625 2.37890625 C7.95391709 6.78416567 8.16203063 10.45313459 7.16015625 15.50390625 C5.22265625 18.62890625 5.22265625 18.62890625 2.16015625 20.50390625 C-0.97007435 21.12215464 -3.71243502 21.14692487 -6.83984375 20.50390625 C-9.8720005 18.30559261 -10.65638773 17.05427431 -11.83984375 13.50390625 C-12.34010726 9.0849119 -12.10765044 6.97904715 -9.90234375 3.06640625 C-6.32490917 0.07304262 -4.54395197 -0.35653713 0 0 Z " fill="#040404" transform="translate(288.83984375,139.49609375)"/>
<path d="M0 0 C3.73716178 0.87853713 5.13010387 2.29902003 7.16015625 5.5078125 C7.95451348 10.25705466 7.75906946 14.36880258 5.16015625 18.5078125 C1.14470633 21.18477911 -2.123103 21.43298757 -6.83984375 20.5078125 C-9.99849401 17.92932249 -11.3749471 16.44424154 -12.3125 12.5390625 C-12.59027737 8.8353642 -11.99301427 6.0964686 -9.90234375 3.0078125 C-6.32530335 0.08777952 -4.5043027 -0.34590638 0 0 Z " fill="#030303" transform="translate(327.83984375,139.4921875)"/>
<path d="M0 0 C3.65050264 0.88318612 4.94055216 2.348519 6.9375 5.46875 C7.9526866 10.54468299 7.74739899 14.20328283 4.9375 18.59375 C1.62360247 20.66493595 -0.28025808 21.22876833 -4.125 20.9375 C-7.77550264 20.05431388 -9.06555216 18.588981 -11.0625 15.46875 C-12.0776866 10.39281701 -11.87239899 6.73421717 -9.0625 2.34375 C-5.74860247 0.27256405 -3.84474192 -0.29126833 0 0 Z " fill="#030303" transform="translate(366.0625,139.53125)"/>
<path d="M0 0 C5 0 5 0 6.4855957 1.46875 C6.87835693 2.1390625 7.27111816 2.809375 7.67578125 3.5 C8.11083984 4.221875 8.54589844 4.94375 8.99414062 5.6875 C9.42919922 6.450625 9.86425781 7.21375 10.3125 8 C10.76689453 8.763125 11.22128906 9.52625 11.68945312 10.3125 C12.80937673 12.19868713 13.90686713 14.09816107 15 16 C15.33 10.72 15.66 5.44 16 0 C17.32 0 18.64 0 20 0 C20 8.58 20 17.16 20 26 C15 25 15 25 13.5144043 23.41772461 C13.12164307 22.75264893 12.72888184 22.08757324 12.32421875 21.40234375 C11.67163086 20.32436523 11.67163086 20.32436523 11.00585938 19.22460938 C10.57080078 18.46986328 10.13574219 17.71511719 9.6875 16.9375 C9.0059082 15.79958008 9.0059082 15.79958008 8.31054688 14.63867188 C7.19263539 12.76764107 6.09438329 10.88488927 5 9 C4.67 14.61 4.34 20.22 4 26 C2.68 26 1.36 26 0 26 C0 17.42 0 8.84 0 0 Z " fill="#EDEDED" transform="translate(356,70)"/>
<path d="M0 0 C3.125 1.5 3.125 1.5 5 3 C4.01 4.485 4.01 4.485 3 6 C2.01 5.67 1.02 5.34 0 5 C-4.32855468 4.51373511 -7.8146546 4.24831755 -11.5625 6.625 C-13.41357136 9.68329182 -13.44055252 11.47557982 -13 15 C-11.79255056 18.20476624 -11.79255056 18.20476624 -9 20 C-6.89145964 20.2352732 -6.89145964 20.2352732 -4.5625 20.25 C-3.78003906 20.27578125 -2.99757812 20.3015625 -2.19140625 20.328125 C0.51738351 19.92253081 1.3216094 19.11466951 3 17 C3.33 16.34 3.66 15.68 4 15 C1.03 15 -1.94 15 -5 15 C-5 13.68 -5 12.36 -5 11 C-0.71 11 3.58 11 8 11 C8.59865471 16.98654709 8.59865471 16.98654709 6.95703125 19.765625 C4.41845286 22.83276371 2.63693457 24.78554257 -1.35546875 25.30859375 C-6.54842893 25.54496297 -10.05254385 25.60479101 -14.125 22.125 C-17.11952791 19.15912786 -18.19794707 17.03008333 -18.4375 12.8125 C-18.414157 7.99606011 -16.76807452 5.71451254 -13.5078125 2.3125 C-9.64947436 -1.0460534 -4.85381264 -0.457188 0 0 Z " fill="#EAEAEA" transform="translate(232,71)"/>
<path d="M0 0 C2.5625 1.5 2.5625 1.5 4 4 C4.58199542 8.58321396 4.54877707 10.85472611 2.5625 15 C-0.71232291 17.55595935 -2.81044616 17.61393373 -6.875 17.33984375 C-9.89517344 16.85683807 -11.16720345 16.52009525 -13 14 C-13.9523357 10.93004828 -14.30867686 8.20462704 -14 5 C-10.56910231 -0.60379956 -6.0880339 -1.19261858 0 0 Z " fill="#040404" transform="translate(344,75)"/>
<path d="M0 0 C4.95 0 9.9 0 15 0 C15.33 1.32 15.66 2.64 16 4 C12.04 4 8.08 4 4 4 C4 6.31 4 8.62 4 11 C7.3 11 10.6 11 14 11 C14.33 12.32 14.66 13.64 15 15 C11.37 15 7.74 15 4 15 C4 17.31 4 19.62 4 22 C7.63 22 11.26 22 15 22 C15.33 23.32 15.66 24.64 16 26 C10.72 26 5.44 26 0 26 C0 17.42 0 8.84 0 0 Z " fill="#E3E3E3" transform="translate(243,70)"/>
<path d="M0 0 C5.61 0 11.22 0 17 0 C17.33 1.32 17.66 2.64 18 4 C15.69 4 13.38 4 11 4 C11 11.26 11 18.52 11 26 C9.35 26 7.7 26 6 26 C6 18.74 6 11.48 6 4 C3.69 4 1.38 4 -1 4 C-0.67 2.68 -0.34 1.36 0 0 Z " fill="#D5D5D5" transform="translate(299,70)"/>
<path d="M0 0 C5.61 0 11.22 0 17 0 C17.33 1.32 17.66 2.64 18 4 C15.69 4 13.38 4 11 4 C11 11.26 11 18.52 11 26 C9.35 26 7.7 26 6 26 C6 18.74 6 11.48 6 4 C3.69 4 1.38 4 -1 4 C-0.67 2.68 -0.34 1.36 0 0 Z " fill="#D5D5D5" transform="translate(262,70)"/>
<path d="M0 0 C0.78503906 0.00644531 1.57007813 0.01289063 2.37890625 0.01953125 C4.4375 0.1875 4.4375 0.1875 6.4375 1.1875 C6.12512196 4.07699684 5.79411121 5.77383099 3.875 8 C0.21468283 9.78323144 -2.50568473 9.51466252 -6.5625 9.1875 C-7.2225 8.5275 -7.8825 7.8675 -8.5625 7.1875 C-8.375 4.6875 -8.375 4.6875 -7.5625 2.1875 C-4.404724 0.082316 -3.60852866 -0.06539344 0 0 Z " fill="#0B0B0B" transform="translate(515.5625,150.8125)"/>
<path d="M0 0 C1.32 0 2.64 0 4 0 C4 8.58 4 17.16 4 26 C2.68 26 1.36 26 0 26 C0 17.42 0 8.84 0 0 Z " fill="#EDEDED" transform="translate(291,70)"/>
<path d="M0 0 C3.25 1 3.25 1 5.25 4 C3.14915791 5.00696568 1.04420511 6.0053589 -1.0625 7 C-2.23425781 7.556875 -3.40601563 8.11375 -4.61328125 8.6875 C-7.75 10 -7.75 10 -10.75 10 C-10.53422233 6.22389069 -9.72797898 4.97588174 -7.125 2.125 C-3.75 0 -3.75 0 0 0 Z " fill="#171717" transform="translate(415.75,139)"/>
<path d="M0 0 C1.9375 1.5625 1.9375 1.5625 3 3 C2.67 3.99 2.34 4.98 2 6 C1.01 5.67 0.02 5.34 -1 5 C-2.89470816 4.9314505 -4.7916834 4.91519628 -6.6875 4.9375 C-7.68136719 4.94652344 -8.67523438 4.95554688 -9.69921875 4.96484375 C-10.45847656 4.97644531 -11.21773438 4.98804688 -12 5 C-12.33 4.34 -12.66 3.68 -13 3 C-12.34 3 -11.68 3 -11 3 C-11 2.34 -11 1.68 -11 1 C-7.2263442 -1.56608594 -4.31804867 -1.02062969 0 0 Z " fill="#111111" transform="translate(519,140)"/>
<path d="M0 0 C0.99 0.33 1.98 0.66 3 1 C0.36 3.64 -2.28 6.28 -5 9 C-5 4.61031544 -2.87194899 3.23094261 0 0 Z " fill="#858585" transform="translate(49,45)"/>
</svg>
